<svg width="20" height="20" viewBox="0 0 20 20" fill="none" xmlns="http://www.w3.org/2000/svg">
<path fill-rule="evenodd" clip-rule="evenodd" d="M18.0421 9.26316H19.2632C19.6632 9.26316 20 9.57895 20 10.0211C20 10.4211 19.6842 10.7579 19.2632 10.7579H18C17.6421 14.6105 14.5684 17.6842 10.7158 18.0421V19.2632C10.7158 19.6632 10.3789 20 9.97895 20C9.57895 20 9.24211 19.6842 9.24211 19.2632V18C5.38947 17.6421 2.31579 14.5684 1.95789 10.7158H0.736842C0.336842 10.7158 0 10.4 0 9.97895C0 9.57895 0.315789 9.24211 0.736842 9.24211H1.97895C2.33684 5.38947 5.41053 2.31579 9.26316 1.95789V0.736842C9.26316 0.336842 9.62105 0 10.0211 0C10.4211 0 10.7579 0.315789 10.7579 0.736842V1.97895C14.6105 2.33684 17.6842 5.41053 18.0421 9.26316ZM14.8 9.26316H16.5474C16.1895 6.21053 13.7895 3.81053 10.7579 3.47368V5.22105C12.8421 5.53684 14.4842 7.17895 14.8 9.26316ZM6.63158 10C6.63158 11.8526 8.14737 13.3684 10 13.3684C11.8526 13.3684 13.3684 11.8526 13.3684 10C13.3684 8.14737 11.8526 6.63158 10 6.63158C8.14737 6.63158 6.63158 8.14737 6.63158 10ZM9.26316 5.2V3.45263C6.21053 3.81053 3.81053 6.21053 3.47368 9.24211H5.22105C5.53684 7.1579 7.17895 5.51579 9.26316 5.2ZM5.2 10.7368H3.45263C3.81053 13.7895 6.21053 16.1895 9.24211 16.5263V14.7789C7.1579 14.4632 5.51579 12.8211 5.2 10.7368ZM10.7368 14.8V16.5474C13.7895 16.1895 16.1895 13.7895 16.5263 10.7579H14.7789C14.4632 12.8421 12.8211 14.4842 10.7368 14.8ZM11.7895 10.0001C11.7895 10.9884 10.9883 11.7895 9.99999 11.7895C9.01169 11.7895 8.21052 10.9884 8.21052 10.0001C8.21052 9.01176 9.01169 8.21058 9.99999 8.21058C10.9883 8.21058 11.7895 9.01176 11.7895 10.0001Z" fill="#F9FAFB"/>
</svg>
