<svg width="28" height="28" viewBox="0 0 28 28" fill="none" xmlns="http://www.w3.org/2000/svg">
<g clip-path="url(#clip0)">
<path d="M3.84205 24.1097C3.83478 24.1097 3.82784 24.1093 3.82057 24.109C3.76731 24.1063 3.71512 24.093 3.66698 24.0701C3.61884 24.0472 3.57569 24.015 3.53999 23.9753C3.5043 23.9357 3.47677 23.8894 3.45896 23.8392C3.44116 23.7889 3.43344 23.7356 3.43624 23.6824C3.63738 19.8344 3.56626 15.9771 3.22341 12.1391C3.21383 12.0319 3.24723 11.9252 3.31625 11.8425C3.38528 11.7599 3.4843 11.708 3.59156 11.6983C3.64478 11.693 3.69853 11.6983 3.74966 11.714C3.80079 11.7297 3.84827 11.7555 3.88933 11.7897C3.93038 11.824 3.96418 11.8662 3.98875 11.9137C4.01332 11.9612 4.02816 12.0131 4.0324 12.0664C4.37854 15.9426 4.45032 19.8384 4.2472 23.7247C4.2418 23.8285 4.19676 23.9263 4.12139 23.9979C4.04601 24.0696 3.94603 24.1096 3.84205 24.1097Z" fill="#22A259" stroke="#22A259" stroke-width="0.5"/>
<path d="M24.2727 23.9765H24.2704C24.1627 23.9759 24.0597 23.9325 23.9839 23.8559C23.9082 23.7793 23.866 23.6758 23.8666 23.568L23.9403 11.2056C23.941 11.0983 23.984 10.9956 24.0601 10.92C24.1362 10.8443 24.2391 10.8018 24.3464 10.8018H24.3487C24.4564 10.8024 24.5595 10.8458 24.6352 10.9224C24.7109 10.999 24.7532 11.1025 24.7526 11.2102L24.6789 23.5727C24.6782 23.68 24.6351 23.7826 24.559 23.8583C24.4829 23.9339 24.38 23.9764 24.2727 23.9765Z" fill="#22A259" stroke="#22A259"/>
<path d="M3.9148 24.4814C3.80732 24.4814 3.70421 24.4389 3.62807 24.363C3.55192 24.2872 3.50894 24.1842 3.50855 24.0768C3.50815 23.9693 3.55038 23.866 3.62597 23.7896C3.70156 23.7132 3.80435 23.6699 3.91183 23.6691C10.6808 23.6186 17.538 23.4348 24.2921 23.1232C24.3456 23.1196 24.3993 23.1269 24.4499 23.1446C24.5005 23.1623 24.547 23.19 24.5866 23.2261C24.6263 23.2622 24.6582 23.306 24.6805 23.3547C24.7028 23.4035 24.715 23.4562 24.7164 23.5098C24.7189 23.5631 24.7109 23.6163 24.6929 23.6665C24.6748 23.7167 24.647 23.7628 24.6111 23.8022C24.5752 23.8416 24.5318 23.8736 24.4836 23.8962C24.4353 23.9189 24.383 23.9318 24.3298 23.9342C17.5651 24.2465 10.6973 24.4305 3.91777 24.4814L3.9148 24.4814Z" fill="#22A259" stroke="#22A259"/>
<path d="M11.223 23.9765C11.1156 23.9764 11.0125 23.9338 10.9364 23.858C10.8603 23.7822 10.8173 23.6794 10.8168 23.572L10.7745 13.9032C10.7741 13.7955 10.8165 13.692 10.8924 13.6155C10.9682 13.539 11.0713 13.4958 11.179 13.4954H11.1807C11.2881 13.4954 11.3911 13.538 11.4672 13.6138C11.5433 13.6896 11.5863 13.7924 11.5868 13.8999L11.6291 23.5687C11.6295 23.6764 11.5872 23.7798 11.5113 23.8563C11.4355 23.9328 11.3324 23.976 11.2246 23.9765H11.223Z" fill="#22A259" stroke="#22A259"/>
<path d="M6.3162 14.3495C6.21033 14.3494 6.10866 14.308 6.03288 14.2341C5.95711 14.1601 5.9132 14.0595 5.91053 13.9537C5.90786 13.8478 5.94663 13.7451 6.01858 13.6674C6.09054 13.5898 6.18998 13.5433 6.29572 13.5379L11.0911 13.2923C11.1444 13.2895 11.1978 13.2972 11.2481 13.315C11.2985 13.3328 11.3448 13.3603 11.3845 13.396C11.4242 13.4318 11.4564 13.475 11.4794 13.5232C11.5023 13.5714 11.5156 13.6236 11.5183 13.677C11.521 13.7303 11.5132 13.7836 11.4953 13.8339C11.4774 13.8842 11.4498 13.9305 11.414 13.9701C11.3781 14.0097 11.3349 14.0418 11.2866 14.0647C11.2384 14.0876 11.1861 14.1007 11.1327 14.1033L6.33734 14.3488C6.33041 14.3492 6.32315 14.3495 6.3162 14.3495Z" fill="#22A259" stroke="#22A259"/>
<path d="M6.25542 24.2424C6.14851 24.2423 6.04594 24.2002 5.96991 24.125C5.89389 24.0499 5.85054 23.9478 5.84927 23.8409L5.73757 13.9074C5.73643 13.7997 5.77807 13.6959 5.85336 13.6189C5.92864 13.5419 6.0314 13.4979 6.13909 13.4966H6.14372C6.25064 13.4966 6.35325 13.5387 6.42928 13.6139C6.50532 13.6891 6.54864 13.7912 6.54986 13.8981L6.66156 23.8316C6.6627 23.9393 6.62106 24.0431 6.54578 24.1201C6.4705 24.1971 6.36773 24.2411 6.26004 24.2424H6.25542Z" fill="#22A259" stroke="#22A259"/>
<path d="M13.4183 20.2446C13.3152 20.2445 13.2161 20.2053 13.1409 20.1348C13.0658 20.0644 13.0202 19.968 13.0134 19.8652C12.8888 17.9829 12.8836 16.0946 12.9979 14.2116C13.0005 14.1581 13.0138 14.1057 13.037 14.0575C13.0602 14.0092 13.0928 13.9661 13.1329 13.9307C13.173 13.8952 13.2197 13.8681 13.2704 13.851C13.3212 13.8338 13.3748 13.827 13.4282 13.8309C13.5357 13.8375 13.6362 13.8866 13.7075 13.9673C13.7789 14.0479 13.8154 14.1536 13.8089 14.2612C13.6965 16.1098 13.7015 17.9637 13.8238 19.8117C13.8273 19.8649 13.8203 19.9183 13.8032 19.9688C13.7861 20.0193 13.7592 20.066 13.7241 20.1061C13.6889 20.1462 13.6462 20.179 13.5984 20.2026C13.5506 20.2262 13.4986 20.2401 13.4454 20.2436C13.4364 20.2443 13.4272 20.2446 13.4183 20.2446Z" fill="#22A259" stroke="#22A259"/>
<path d="M21.607 19.9747C21.5023 19.9746 21.4016 19.934 21.3261 19.8615C21.2505 19.7889 21.2059 19.69 21.2015 19.5854C21.1232 17.6921 21.1301 15.7728 21.2227 13.8805C21.2279 13.773 21.2757 13.6719 21.3554 13.5996C21.4352 13.5273 21.5404 13.4896 21.648 13.4949C21.7555 13.5001 21.8566 13.5479 21.9289 13.6277C22.0012 13.7074 22.0389 13.8126 22.0336 13.9202C21.9424 15.788 21.9355 17.6826 22.0131 19.5517C22.0176 19.6593 21.9791 19.7643 21.9062 19.8435C21.8332 19.9228 21.7318 19.9698 21.6242 19.9743L21.607 19.9747Z" fill="#22A259" stroke="#22A259"/>
<path d="M13.9827 20.5797C13.8793 20.5795 13.7798 20.5399 13.7046 20.469C13.6294 20.398 13.5841 20.3011 13.5779 20.1979C13.5717 20.0946 13.6051 19.993 13.6713 19.9135C13.7375 19.8341 13.8315 19.7829 13.9341 19.7704C16.4291 19.4718 18.9398 19.3231 21.4526 19.3252C21.5601 19.3256 21.6631 19.3687 21.7389 19.445C21.8148 19.5212 21.8573 19.6245 21.8571 19.732C21.8569 19.8396 21.8141 19.9427 21.738 20.0187C21.6619 20.0947 21.5588 20.1374 21.4512 20.1375C21.3885 20.1342 21.3256 20.1341 21.2629 20.1372C18.8461 20.1376 16.4316 20.2844 14.0326 20.5767C14.016 20.5787 13.9994 20.5797 13.9827 20.5797Z" fill="#22A259" stroke="#22A259"/>
<path d="M13.5825 14.3231C13.475 14.3231 13.3719 14.2805 13.2958 14.2047C13.2196 14.1288 13.1767 14.0259 13.1763 13.9184C13.1759 13.811 13.2181 13.7077 13.2937 13.6313C13.3693 13.5549 13.4721 13.5116 13.5795 13.5108L21.4486 13.4536H21.4516C21.5591 13.4536 21.6622 13.4962 21.7384 13.572C21.8145 13.6479 21.8575 13.7508 21.8579 13.8583C21.8583 13.9658 21.816 14.069 21.7404 14.1454C21.6649 14.2218 21.5621 14.2651 21.4546 14.2659L13.5855 14.3231H13.5825Z" fill="#22A259" stroke="#22A259"/>
<path d="M2.23262 12.1451C1.83752 12.139 1.45512 12.0045 1.14308 11.7621C0.831031 11.5197 0.60625 11.1824 0.502621 10.8011C0.489632 10.7492 0.487033 10.6952 0.494973 10.6422C0.502913 10.5893 0.521236 10.5385 0.548888 10.4926C0.57654 10.4468 0.612976 10.4069 0.656102 10.3752C0.699229 10.3435 0.748195 10.3206 0.800187 10.3079C0.852178 10.2952 0.90617 10.2929 0.959059 10.3011C1.01195 10.3093 1.06269 10.3279 1.10837 10.3558C1.15405 10.3837 1.19377 10.4204 1.22525 10.4636C1.25672 10.5069 1.27933 10.556 1.29177 10.6081C1.35585 10.8263 1.49201 11.0163 1.67801 11.1472C1.86401 11.278 2.08888 11.3419 2.31589 11.3285C2.54074 11.2941 2.74728 11.1846 2.90178 11.0176C3.05628 10.8507 3.14961 10.6363 3.16652 10.4095C3.16937 10.3054 3.21207 10.2065 3.28581 10.133C3.35955 10.0595 3.45869 10.0172 3.56275 10.0147C3.66715 10.011 3.76889 10.0481 3.84629 10.1183C3.9237 10.1884 3.97065 10.2861 3.97715 10.3903C4.00197 10.597 4.09655 10.789 4.24526 10.9347C4.39397 11.0803 4.58792 11.1709 4.79506 11.1914C5.00309 11.1927 5.20537 11.1232 5.36867 10.9943C5.53197 10.8654 5.64655 10.6848 5.6936 10.4822C5.70963 10.3947 5.75391 10.3149 5.81965 10.255C5.88539 10.1952 5.96897 10.1585 6.05755 10.1507C6.14613 10.1429 6.23482 10.1644 6.31002 10.2118C6.38522 10.2593 6.44277 10.3301 6.47384 10.4134C6.56009 10.6458 6.71899 10.844 6.92693 10.9788C7.13487 11.1136 7.38076 11.1777 7.62804 11.1616C7.87533 11.1455 8.11082 11.05 8.29951 10.8894C8.4882 10.7288 8.62003 10.5115 8.67541 10.27C8.69556 10.1828 8.74397 10.1046 8.81312 10.0477C8.88226 9.99082 8.96827 9.95837 9.05776 9.9554L9.0713 9.95506C9.15851 9.95508 9.24339 9.98318 9.31339 10.0352C9.38338 10.0872 9.43476 10.1604 9.45993 10.2439C9.53588 10.4952 9.68785 10.7169 9.89491 10.8783C10.102 11.0397 10.354 11.133 10.6162 11.1454C10.8785 11.1577 11.1382 11.0885 11.3595 10.9473C11.5808 10.806 11.7529 10.5997 11.8522 10.3566C11.8825 10.2825 11.9339 10.219 12.0001 10.1741C12.0663 10.1291 12.1443 10.1047 12.2243 10.1039C12.3048 10.1002 12.3845 10.1218 12.4521 10.1658C12.5197 10.2097 12.5718 10.2738 12.601 10.349C12.7153 10.6135 12.9115 10.8344 13.1608 10.9789C13.4101 11.1234 13.6993 11.184 13.9856 11.1517C14.272 11.1194 14.5403 10.9959 14.7512 10.7995C14.962 10.603 15.1041 10.344 15.1565 10.0607C15.1749 9.9612 15.2297 9.87217 15.3102 9.81099C15.3907 9.74981 15.4912 9.72089 15.5919 9.72988C15.6927 9.73887 15.7864 9.78513 15.8548 9.8596C15.9233 9.93408 15.9614 10.0314 15.9619 10.1325C15.9628 10.3669 16.0518 10.5923 16.2114 10.7639C16.3709 10.9355 16.5892 11.0408 16.8228 11.0588C17.0565 11.0768 17.2883 11.0062 17.4722 10.861C17.6562 10.7158 17.7787 10.5067 17.8155 10.2753C17.8289 10.1909 17.8686 10.1129 17.9289 10.0524C17.9892 9.9919 18.0671 9.95195 18.1514 9.93824C18.2358 9.92453 18.3223 9.93777 18.3987 9.97606C18.475 10.0144 18.5374 10.0758 18.5769 10.1515C18.6875 10.3573 18.8512 10.5298 19.051 10.651C19.2508 10.7722 19.4794 10.8377 19.713 10.8407H19.7193C19.9541 10.8364 20.1835 10.7691 20.3834 10.6459C20.5833 10.5226 20.7464 10.348 20.8558 10.1401C20.8925 10.0678 20.9501 10.0082 21.0211 9.96894C21.092 9.92966 21.1731 9.91253 21.2539 9.91974C21.3347 9.92696 21.4114 9.9582 21.4743 10.0094C21.5371 10.0607 21.5832 10.1296 21.6066 10.2072C21.6931 10.4641 21.8562 10.6883 22.0739 10.8497C22.2916 11.0111 22.5535 11.1019 22.8244 11.1101H22.8366C23.1095 11.0982 23.372 11.0024 23.5884 10.8357C23.8047 10.669 23.9644 10.4396 24.0454 10.1788C24.0662 10.1036 24.1082 10.036 24.1663 9.98406C24.2245 9.9321 24.2964 9.89799 24.3734 9.88581C24.4504 9.87363 24.5294 9.88389 24.6007 9.91536C24.6721 9.94684 24.7328 9.99819 24.7758 10.0633C24.905 10.2261 25.0686 10.3583 25.2549 10.4505C25.4412 10.5426 25.6456 10.5924 25.8534 10.5962C26.0612 10.6 26.2673 10.5578 26.4569 10.4726C26.6465 10.3874 26.8148 10.2612 26.9499 10.1033C26.9809 10.0599 27.0201 10.023 27.0653 9.99477C27.1106 9.96653 27.1609 9.94747 27.2135 9.93869C27.2661 9.9299 27.3199 9.93157 27.3718 9.94357C27.4238 9.95558 27.4729 9.97771 27.5163 10.0087C27.5597 10.0397 27.5965 10.0789 27.6248 10.1241C27.653 10.1693 27.6721 10.2197 27.6809 10.2723C27.6896 10.3249 27.688 10.3787 27.676 10.4306C27.664 10.4826 27.6418 10.5316 27.6109 10.575C27.405 10.8471 27.1362 11.065 26.8275 11.2102C26.5187 11.3553 26.1794 11.4232 25.8386 11.4081C25.3769 11.4046 24.9277 11.2577 24.553 10.9878C24.3637 11.2684 24.1099 11.4997 23.8129 11.6623C23.5159 11.8249 23.1843 11.914 22.8458 11.9223H22.8234C22.4982 11.9184 22.1783 11.8398 21.8883 11.6926C21.5983 11.5454 21.346 11.3335 21.1509 11.0734C20.7636 11.4372 20.2548 11.6438 19.7236 11.653H19.7134C19.1989 11.647 18.7039 11.4554 18.3194 11.1134C18.1448 11.361 17.9102 11.5602 17.6376 11.6922C17.3649 11.8243 17.0632 11.885 16.7606 11.8685C16.5141 11.8446 16.2753 11.7692 16.0598 11.6471C15.8443 11.5251 15.6568 11.3591 15.5095 11.16C15.1538 11.6024 14.6399 11.8889 14.0766 11.9587C13.7351 11.9919 13.3905 11.9451 13.0702 11.8219C12.75 11.6988 12.4628 11.5027 12.2316 11.2492C12.0357 11.4744 11.7933 11.6544 11.5212 11.7769C11.249 11.8993 10.9536 11.9613 10.6551 11.9585C10.3567 11.9558 10.0624 11.8883 9.7926 11.7608C9.52276 11.6334 9.28378 11.4489 9.09212 11.2201C8.92066 11.4423 8.70307 11.6248 8.45435 11.7548C8.20563 11.8849 7.93168 11.9596 7.65135 11.9736C7.37102 11.9877 7.09097 11.9409 6.83048 11.8363C6.56998 11.7318 6.33523 11.5721 6.14237 11.3682C5.9756 11.5744 5.76316 11.7391 5.52182 11.8492C5.28048 11.9592 5.01685 12.0117 4.75177 12.0023C4.31142 11.972 3.90037 11.7708 3.60637 11.4415C3.46231 11.6321 3.28142 11.7918 3.07444 11.9112C2.86746 12.0305 2.63861 12.107 2.40148 12.1362C2.34539 12.1421 2.28902 12.1451 2.23262 12.1451Z" fill="#22A259" stroke="#22A259"/>
<path d="M27.8743 10.5578C27.8111 10.5579 27.7486 10.5432 27.6921 10.5148C27.6355 10.4865 27.5863 10.4453 27.5485 10.3945C26.2075 8.59587 24.7593 6.87967 23.2118 5.25526C23.138 5.17716 23.0982 5.07302 23.1011 4.96565C23.104 4.85828 23.1492 4.75641 23.227 4.68233C23.3048 4.60826 23.4088 4.56802 23.5161 4.57041C23.6235 4.57281 23.7256 4.61765 23.8 4.69511C25.3699 6.34317 26.8391 8.08437 28.1995 9.90923C28.2445 9.96956 28.2719 10.0412 28.2785 10.1162C28.2851 10.1912 28.2708 10.2665 28.237 10.3338C28.2033 10.4011 28.1515 10.4577 28.0874 10.4972C28.0234 10.5368 27.9496 10.5578 27.8743 10.5578H27.8743Z" fill="#22A259" stroke="#22A259"/>
<path d="M0.686004 10.7533C0.610617 10.7533 0.536721 10.7323 0.472594 10.6927C0.408467 10.6531 0.35664 10.5964 0.322918 10.5289C0.289195 10.4615 0.27491 10.386 0.281661 10.3109C0.288412 10.2359 0.315933 10.1641 0.361141 10.1038C1.88039 8.07603 3.58046 6.19026 5.44044 4.46966C5.51954 4.39656 5.62444 4.35789 5.73206 4.36213C5.83967 4.36638 5.9412 4.4132 6.01429 4.4923C6.08739 4.5714 6.12606 4.6763 6.12182 4.78392C6.11757 4.89154 6.07075 4.99306 5.99165 5.06615C4.16786 6.75321 2.50098 8.60232 1.01151 10.5907C0.973633 10.6413 0.924488 10.6823 0.867982 10.7105C0.811476 10.7387 0.749167 10.7534 0.686004 10.7533Z" fill="#22A259" stroke="#22A259"/>
<path d="M5.71341 5.31826C5.60582 5.31902 5.50231 5.27705 5.42564 5.20157C5.34896 5.12608 5.30538 5.02325 5.30446 4.91566C5.30354 4.80806 5.34536 4.7045 5.42074 4.62772C5.49611 4.55093 5.59888 4.5072 5.70647 4.50613L23.2447 4.19995C23.352 4.19952 23.4551 4.24096 23.5323 4.31546C23.6095 4.38996 23.6545 4.49163 23.6578 4.59883C23.6596 4.70654 23.6186 4.81056 23.5437 4.88802C23.4689 4.96548 23.3663 5.01004 23.2586 5.01191L5.72035 5.31809L5.71341 5.31826Z" fill="#22A259" stroke="#22A259"/>
</g>
<defs>
<clipPath id="clip0">
<rect width="28" height="28" fill="white"/>
</clipPath>
</defs>
</svg>
