<svg width="33" height="32" viewBox="0 0 33 32" fill="none" xmlns="http://www.w3.org/2000/svg">
<path d="M4.875 28H28.875" stroke="#666666" stroke-width="2.25" stroke-linecap="round" stroke-linejoin="round"/>
<path d="M4.875 9.33333V10.6667C4.875 11.7275 5.29643 12.7449 6.04657 13.4951C6.79672 14.2452 7.81413 14.6667 8.875 14.6667C9.93587 14.6667 10.9533 14.2452 11.7034 13.4951C12.4536 12.7449 12.875 11.7275 12.875 10.6667M4.875 9.33333H12.875V10.6667M4.875 9.33333H28.875M4.875 9.33333L7.54167 4H26.2083L28.875 9.33333M12.875 10.6667C12.875 11.7275 13.2964 12.7449 14.0466 13.4951C14.7967 14.2452 15.8141 14.6667 16.875 14.6667C17.9359 14.6667 18.9533 14.2452 19.7034 13.4951C20.4536 12.7449 20.875 11.7275 20.875 10.6667M20.875 10.6667V9.33333M20.875 10.6667C20.875 11.7275 21.2964 12.7449 22.0466 13.4951C22.7967 14.2452 23.8141 14.6667 24.875 14.6667C25.9359 14.6667 26.9533 14.2452 27.7034 13.4951C28.4536 12.7449 28.875 11.7275 28.875 10.6667V9.33333" stroke="#666666" stroke-width="2.25" stroke-linecap="round" stroke-linejoin="round"/>
<path d="M7.54175 28.0001V14.4668" stroke="#666666" stroke-width="2.25" stroke-linecap="round" stroke-linejoin="round"/>
<path d="M26.2083 28.0001V14.4668" stroke="#666666" stroke-width="2.25" stroke-linecap="round" stroke-linejoin="round"/>
<path d="M12.875 28V22.6667C12.875 21.9594 13.156 21.2811 13.656 20.781C14.1561 20.281 14.8344 20 15.5417 20H18.2083C18.9156 20 19.5939 20.281 20.094 20.781C20.594 21.2811 20.875 21.9594 20.875 22.6667V28" stroke="#666666" stroke-width="2.25" stroke-linecap="round" stroke-linejoin="round"/>
</svg>
