<svg width="46" height="45" viewBox="0 0 46 45" fill="none" xmlns="http://www.w3.org/2000/svg">
<path d="M10.0208 38.9375V20.1177" stroke="#22A259" stroke-width="2.02273" stroke-linecap="round" stroke-linejoin="round"/>
<path d="M35.9792 38.9375V20.1177" stroke="#22A259" stroke-width="2.02273" stroke-linecap="round" stroke-linejoin="round"/>
<path d="M17.4375 38.9375V31.5208C17.4375 30.5373 17.8282 29.5941 18.5236 28.8986C19.2191 28.2032 20.1623 27.8125 21.1458 27.8125H24.8542C25.8377 27.8125 26.7809 28.2032 27.4764 28.8986C28.1718 29.5941 28.5625 30.5373 28.5625 31.5208V38.9375" stroke="#22A259" stroke-width="2.02273" stroke-linecap="round" stroke-linejoin="round"/>
<path d="M6.3125 38.9375H39.6875" stroke="#22A259" stroke-width="2.02273" stroke-linecap="round" stroke-linejoin="round"/>
<path d="M6.3125 12.9792V14.8333C6.3125 16.3086 6.89855 17.7234 7.94172 18.7666C8.98489 19.8098 10.3997 20.3958 11.875 20.3958C13.3503 20.3958 14.7651 19.8098 15.8083 18.7666C16.8515 17.7234 17.4375 16.3086 17.4375 14.8333M6.3125 12.9792H17.4375V14.8333M6.3125 12.9792H39.6875M6.3125 12.9792L10.0208 5.5625H35.9792L39.6875 12.9792M17.4375 14.8333C17.4375 16.3086 18.0235 17.7234 19.0667 18.7666C20.1099 19.8098 21.5247 20.3958 23 20.3958C24.4753 20.3958 25.8901 19.8098 26.9333 18.7666C27.9765 17.7234 28.5625 16.3086 28.5625 14.8333M28.5625 14.8333V12.9792M28.5625 14.8333C28.5625 16.3086 29.1485 17.7234 30.1917 18.7666C31.2349 19.8098 32.6497 20.3958 34.125 20.3958C35.6003 20.3958 37.0151 19.8098 38.0583 18.7666C39.1015 17.7234 39.6875 16.3086 39.6875 14.8333V12.9792" stroke="#22A259" stroke-width="2.02273" stroke-linecap="round" stroke-linejoin="round"/>
</svg>
