<svg width="33" height="32" viewBox="0 0 33 32" fill="none" xmlns="http://www.w3.org/2000/svg">
<path d="M26.644 5.02406C23.604 2.88006 19.732 3.00806 16.276 3.74406C13.684 4.28806 11.156 5.24806 8.91597 6.62406C8.78797 6.49606 8.59597 6.43206 8.33997 6.43206C5.13997 6.75206 3.31597 9.44006 2.51597 12.3521C1.45997 16.2241 2.32397 20.5761 4.75597 23.7441C6.89997 26.5281 10.132 28.2241 13.588 28.6721C17.652 29.2161 21.684 27.2001 24.82 24.8001C27.892 22.4641 30.868 19.3921 30.932 15.2961C30.964 13.3441 30.26 11.2001 29.652 9.34406C29.044 7.68006 28.084 6.04806 26.644 5.02406ZM25.044 22.5601C20.052 27.0081 13.14 29.0561 7.57197 24.4161C4.94797 22.2401 3.73197 19.0721 3.69997 15.7441C3.66797 13.9521 4.11597 11.5841 5.26797 9.95206C5.33197 10.5601 6.09997 11.0401 6.61197 10.4961C10.74 6.27206 18.324 3.48806 24.052 5.44006C27.444 6.56006 28.276 10.1441 28.98 13.2161C29.908 17.2161 27.924 19.9681 25.044 22.5601Z" fill="#22A259" stroke="#22A259"/>
<path d="M20.756 9.92005C19.732 12.5441 18.548 15.1041 17.236 17.5681C16.596 18.7521 15.9241 19.9041 15.1881 21.0561C15.1561 21.0881 12.34 18.0481 12.116 17.7601C11.508 16.9281 10.1321 17.7281 10.7401 18.5601C11.7001 19.9041 12.8841 21.4081 14.3241 22.3041C15.5401 23.0401 16.212 22.4321 16.852 21.3761C19.06 17.8881 20.852 14.1761 22.324 10.3361C22.676 9.37605 21.14 8.96005 20.756 9.92005Z" fill="#22A259" stroke="#22A259"/>
</svg>
