<svg width="29" height="29" viewBox="0 0 29 29" fill="none" xmlns="http://www.w3.org/2000/svg">
<path d="M18.7875 9.34254C17.9125 9.08004 16.95 8.81754 16.075 8.64254C16.075 8.55504 16.1625 8.38005 16.1625 8.29255L16.3375 7.59254C16.425 7.24254 16.1625 6.89254 15.8125 6.80504C15.4625 6.71754 15.1125 6.98004 15.025 7.33004L14.85 8.03004C14.85 8.11754 14.7625 8.29254 14.7625 8.46754C13.8 8.29254 12.75 8.55504 11.875 9.25504C11.175 9.86754 10.825 10.655 10.9125 11.4425C11 12.1425 11.525 12.755 12.3125 13.1925C12.75 13.3675 13.1875 13.63 13.625 13.8925H13.7125C13.5375 15.2925 13.3625 16.78 13.275 18.18C12.3125 18.0925 11.175 17.5675 10.0375 16.6925C9.775 16.43 9.3375 16.5175 9.075 16.78C8.8125 17.0425 8.9 17.48 9.1625 17.7425C10.5625 18.88 11.875 19.4925 13.1875 19.58C13.1875 19.8425 13.1875 20.1925 13.1875 20.455C13.1875 20.805 13.45 21.0675 13.8 21.0675C14.15 21.0675 14.4125 20.805 14.4125 20.3675C14.4125 20.0175 14.4125 19.755 14.4125 19.405C14.9375 19.3175 15.375 19.1425 15.9 18.7925C16.5125 18.355 16.95 17.7425 17.2125 16.955C17.475 15.4675 16.6875 13.98 15.2875 13.28C15.2 13.28 15.1125 13.1925 15.025 13.1925C15.2 12.1425 15.375 11.005 15.6375 9.95504C16.5125 10.13 17.3875 10.3925 18.175 10.655C18.525 10.7425 18.875 10.5675 18.9625 10.2175C19.3125 9.78004 19.1375 9.43004 18.7875 9.34254ZM12.925 11.9675C12.575 11.7925 12.3125 11.53 12.225 11.2675C12.1375 11.005 12.4 10.655 12.75 10.305C13.275 9.86754 13.8875 9.69254 14.5875 9.69254C14.4125 10.655 14.2375 11.6175 14.0625 12.58C13.625 12.3175 13.275 12.1425 12.925 11.9675ZM16.1625 16.605C16.075 17.0425 15.725 17.3925 15.375 17.655C15.1125 17.83 14.85 17.9175 14.675 18.005C14.7625 16.8675 14.85 15.6425 15.025 14.505C15.8125 14.9425 16.25 15.8175 16.1625 16.605Z" fill="#9CA3AF"/>
<path d="M21.675 5.14248C19.225 2.95498 15.8125 1.90498 12.8375 2.42998C12.75 2.42998 12.6625 2.42998 12.6625 2.42998C9.68749 3.12998 7.76249 5.14248 6.44999 6.80498C4.34999 9.34248 3.29999 12.58 3.29999 15.8175C3.29999 17.7425 3.99999 19.58 5.04999 21.0675C6.18749 22.73 7.93749 24.9175 11 25.7925C11.35 25.88 13.275 26.405 15.55 26.405C17.65 26.405 20.1 25.9675 21.85 24.3925C24.125 22.2925 25.525 19.3175 25.7 16.1675C25.9625 10.305 23.6875 6.97998 21.675 5.14248ZM24.3875 16.08C24.3 18.88 23.075 21.505 20.975 23.3425C18.525 25.6175 13.8 25.0925 11.4375 24.48C9.42499 23.955 7.84999 22.6425 6.27499 20.28C5.31249 18.9675 4.78749 17.3925 4.69999 15.73C4.61249 12.755 5.57499 9.86748 7.41249 7.50498C9.24999 5.22998 10.825 4.09248 12.8375 3.56748C12.925 3.56748 12.925 3.56748 13.0125 3.56748C15.025 3.21748 18.2625 3.65498 20.8875 6.01748C22.6375 7.76748 24.65 10.7425 24.3875 16.08Z" fill="#9CA3AF"/>
</svg>
