<svg width="165" height="158" viewBox="0 0 165 158" fill="none" xmlns="http://www.w3.org/2000/svg">
<path opacity="0.4" d="M133.222 9.77948C142.645 12.9545 144.284 30.6731 150.019 47.1627C155.755 63.7547 165.587 79.2201 164.973 94.4807C164.256 109.639 153.194 124.592 138.753 126.845C124.414 129.099 106.798 118.857 90.6157 116.808C74.5358 114.76 59.8897 121.007 45.7558 118.652C31.6219 116.194 18.1024 105.235 9.60159 89.9743C0.670768 73.8161 -2.1295 54.978 1.71526 36.9208C5.70963 18.4852 17.3855 1.17621 33.1582 0.0495938C49.0332 -0.974596 69.1075 14.1836 87.8504 16.0271C106.491 17.9731 123.8 6.60446 133.222 9.77948Z" fill="#8CC199"/>
<path d="M114.128 56.869C110.851 49.8503 107.598 42.8201 104.287 35.8178C103.044 33.1888 100.78 32.2266 98.4905 33.1969C96.0701 34.2228 95.1716 36.6595 96.3191 39.3808C97.2078 41.4885 98.2295 43.5399 99.186 45.6192C99.8324 47.0242 100.058 48.4298 98.4038 49.2489C96.7168 50.0843 95.7953 49.0133 95.1234 47.6065C94.1124 45.4898 93.0914 43.3778 92.0484 41.2091C73.3279 49.9497 54.8699 58.5678 36.331 67.2236C37.4831 69.721 38.4531 71.8872 39.4791 74.0264C40.2 75.5293 40.5125 76.9984 38.6833 77.8284C36.8021 78.6818 35.9951 77.3074 35.3215 75.8597C34.8071 74.754 34.2522 73.6671 33.6523 72.4433C28.2699 74.9645 23.2311 77.7202 17.6557 80.3856C18.6057 82.3979 18.6057 82.3979 19.6845 84.6664C19.8393 85.0708 19.8422 85.5175 19.6927 85.9238C19.5432 86.3301 19.2514 86.6684 18.8715 86.8759C18.2577 87.2732 16.7404 87.7722 16.0569 86.3998C15.7781 85.84 15.7837 85.761 15.2273 84.6492C13.5429 85.4297 11.4735 86.4789 9.87158 87.1679C8.27137 87.8561 6.91658 88.9197 4.80604 87.8576C3.2829 87.0912 1.55117 88.9626 2.30384 90.659C4.00367 94.49 4.99799 96.6589 6.99593 100.7C7.89682 102.522 10.2677 102.359 10.7794 100.13C11.1829 98.3715 12.1694 98.3201 14.3654 97.3122C18.1705 95.566 19.6823 94.8321 23.4718 93.0676L25.1374 95.8791L45.0585 86.625C45.727 87.7633 46.2856 88.7146 46.8583 89.6898L50.3595 88.1872C50.8047 89.2478 51.1681 90.0991 51.5173 90.8224C53.1862 94.2798 52.6215 94.9644 51.5566 97.159C42.7191 115.37 33.9195 133.6 25.1577 151.848C23.885 154.491 24.3717 156.513 26.4144 157.52C28.4395 158.517 30.4028 157.615 31.6676 155.029C33.7564 150.759 35.911 146.516 37.8267 142.168C38.1181 141.262 38.7141 140.484 39.5137 139.967C40.3133 139.449 41.2673 139.225 42.2136 139.331C54.6257 139.459 67.0385 139.501 79.452 139.457C80.0946 139.395 80.7393 139.553 81.2803 139.905C81.8214 140.257 82.2268 140.783 82.43 141.395C84.6396 146.08 86.9506 150.717 89.2707 155.349C90.2103 157.225 91.5328 158.623 93.8789 157.65C95.915 156.805 96.6201 154.578 95.5487 152.305C91.1269 142.923 86.6777 133.554 82.2011 124.198C77.5168 114.444 72.7361 104.737 68.0983 94.9611C67.9174 94.5155 67.8446 94.0333 67.8859 93.5541C67.9271 93.0749 68.0812 92.6122 68.3355 92.204C70.9565 88.6272 71.5875 87.0762 70.5363 84.6656C69.8278 83.041 69.8807 83.2557 68.3399 79.7327C81.0988 73.7787 93.8231 67.8408 106.513 61.919C109.123 64.6561 111.21 65.1755 113.29 63.7122C115.357 62.2589 115.623 60.0716 114.128 56.869ZM77.9633 132.146H42.5934C48.5002 120.001 54.262 108.154 60.3179 95.7024C66.3423 108.145 72.085 120.006 77.9633 132.146Z" fill="#2E864E"/>
<path d="M23.8455 55.4579H22.1371V53.7495C22.1362 53.4404 22.0128 53.1443 21.7939 52.9261C21.5751 52.7079 21.2786 52.5853 20.9695 52.5853C20.6605 52.5853 20.364 52.7079 20.1451 52.9261C19.9262 53.1443 19.8028 53.4404 19.8019 53.7495V55.4579H18.0935C17.7839 55.4579 17.4869 55.5809 17.268 55.7999C17.049 56.0188 16.926 56.3158 16.926 56.6254C16.926 56.9351 17.049 57.232 17.268 57.451C17.4869 57.6699 17.7839 57.7929 18.0935 57.7929H19.8019V59.5013C19.8015 59.6549 19.8313 59.8071 19.8898 59.9492C19.9483 60.0912 20.0342 60.2204 20.1427 60.3291C20.2512 60.4379 20.38 60.5242 20.5219 60.5831C20.6638 60.642 20.8159 60.6723 20.9695 60.6723C21.1232 60.6723 21.2753 60.642 21.4171 60.5831C21.559 60.5242 21.6879 60.4379 21.7964 60.3291C21.9048 60.2204 21.9908 60.0912 22.0492 59.9492C22.1077 59.8071 22.1376 59.6549 22.1371 59.5013V57.7929H23.8455C24.1552 57.7929 24.4521 57.6699 24.6711 57.451C24.89 57.232 25.013 56.9351 25.013 56.6254C25.013 56.3158 24.89 56.0188 24.6711 55.7999C24.4521 55.5809 24.1552 55.4579 23.8455 55.4579V55.4579Z" fill="#2E864E"/>
<path d="M135.702 39.656H133.05V37.0047C133.051 36.7664 133.004 36.5304 132.913 36.3101C132.822 36.0898 132.689 35.8896 132.521 35.7209C132.353 35.5522 132.153 35.4184 131.933 35.3271C131.712 35.2358 131.477 35.1888 131.238 35.1888C131 35.1888 130.764 35.2358 130.544 35.3271C130.324 35.4184 130.124 35.5522 129.956 35.7209C129.787 35.8896 129.654 36.0898 129.563 36.3101C129.473 36.5304 129.426 36.7664 129.427 37.0047V39.656H126.775C126.537 39.6555 126.301 39.7019 126.081 39.7927C125.86 39.8835 125.66 40.0169 125.491 40.1852C125.323 40.3535 125.189 40.5534 125.098 40.7735C125.006 40.9936 124.959 41.2296 124.959 41.4679C124.959 41.7062 125.006 41.9421 125.098 42.1622C125.189 42.3823 125.323 42.5822 125.491 42.7505C125.66 42.9188 125.86 43.0522 126.081 43.143C126.301 43.2338 126.537 43.2803 126.775 43.2797H129.427V45.931C129.426 46.1693 129.473 46.4053 129.563 46.6256C129.654 46.8459 129.787 47.0461 129.956 47.2148C130.124 47.3835 130.324 47.5173 130.544 47.6086C130.764 47.6999 131 47.7469 131.238 47.7469C131.477 47.7469 131.712 47.6999 131.933 47.6086C132.153 47.5173 132.353 47.3835 132.521 47.2148C132.689 47.0461 132.822 46.8459 132.913 46.6256C133.004 46.4053 133.051 46.1693 133.05 45.931V43.2797H135.702C136.182 43.2786 136.642 43.0872 136.98 42.7475C137.319 42.4078 137.51 41.9476 137.51 41.4678C137.51 40.988 137.319 40.5278 136.98 40.1882C136.642 39.8485 136.182 39.6571 135.702 39.656V39.656Z" fill="#2E864E"/>
<path d="M152.367 97.9227H149.331V94.8862C149.331 94.3358 149.112 93.8079 148.723 93.4188C148.334 93.0296 147.806 92.8109 147.256 92.8109C146.705 92.8109 146.177 93.0296 145.788 93.4188C145.399 93.8079 145.18 94.3358 145.18 94.8862V97.9227H142.144C141.593 97.9227 141.066 98.1413 140.676 98.5305C140.287 98.9197 140.069 99.4475 140.069 99.9978C140.069 100.548 140.287 101.076 140.676 101.465C141.066 101.854 141.593 102.073 142.144 102.073H145.18V105.109C145.18 105.66 145.399 106.188 145.788 106.577C146.177 106.966 146.705 107.185 147.256 107.185C147.806 107.185 148.334 106.966 148.723 106.577C149.112 106.188 149.331 105.66 149.331 105.109V102.073H152.367C152.918 102.073 153.445 101.854 153.835 101.465C154.224 101.076 154.442 100.548 154.442 99.9978C154.442 99.4475 154.224 98.9197 153.835 98.5305C153.445 98.1413 152.918 97.9227 152.367 97.9227Z" fill="#2E864E"/>
<path d="M42.4477 30.2051C42.4484 29.9837 42.4051 29.7643 42.3204 29.5598C42.2357 29.3552 42.1113 29.1694 41.9544 29.0133C41.6333 28.7065 41.2062 28.5352 40.7621 28.5352C40.318 28.5351 39.8909 28.7062 39.5697 29.0129L38.1398 30.4429L36.7102 29.0133C36.3891 28.7067 35.9622 28.5355 35.5183 28.5353C35.0743 28.5352 34.6473 28.706 34.3259 29.0123C34.1692 29.1688 34.0449 29.3547 33.9601 29.5593C33.8753 29.7639 33.8316 29.9832 33.8315 30.2047C33.8315 30.4262 33.8751 30.6455 33.9599 30.8501C34.0447 31.0548 34.1689 31.2407 34.3256 31.3973L35.7555 32.8272L34.3259 34.2565C34.1692 34.413 34.0449 34.5989 33.9601 34.8035C33.8753 35.0081 33.8316 35.2274 33.8315 35.4489C33.8315 35.6704 33.8751 35.8897 33.9599 36.0943C34.0447 36.299 34.1689 36.4849 34.3256 36.6415C34.6468 36.9478 35.0737 37.1186 35.5176 37.1186C35.9614 37.1186 36.3883 36.9478 36.7095 36.6415L38.1398 35.2115L39.5687 36.6404C39.7252 36.797 39.911 36.9213 40.1155 37.0061C40.32 37.0909 40.5392 37.1345 40.7606 37.1346C40.982 37.1347 41.2012 37.0912 41.4058 37.0065C41.6103 36.9219 41.7962 36.7978 41.9528 36.6413C42.1094 36.4848 42.2337 36.299 42.3185 36.0945C42.4033 35.89 42.4469 35.6708 42.447 35.4494C42.4471 35.228 42.4036 35.0088 42.3189 34.8042C42.2343 34.5997 42.1102 34.4138 41.9537 34.2572L40.5238 32.8272L41.9534 31.398C42.1106 31.2418 42.2352 31.0559 42.3201 30.8511C42.405 30.6463 42.4483 30.4267 42.4477 30.2051Z" fill="#2E864E"/>
<path d="M106.253 114.498C106.253 114.267 106.185 114.042 106.056 113.85C105.928 113.658 105.746 113.508 105.533 113.42C105.319 113.332 105.085 113.309 104.858 113.354C104.632 113.399 104.424 113.51 104.261 113.673L103.271 114.663L102.281 113.673C102.059 113.461 101.763 113.342 101.456 113.342C101.148 113.342 100.853 113.46 100.63 113.672C100.522 113.781 100.436 113.91 100.377 114.051C100.318 114.193 100.288 114.345 100.288 114.498C100.288 114.651 100.318 114.803 100.377 114.945C100.436 115.087 100.522 115.215 100.63 115.324L101.62 116.314L100.63 117.304C100.411 117.523 100.288 117.819 100.288 118.129C100.288 118.438 100.411 118.735 100.629 118.954C100.852 119.166 101.147 119.284 101.455 119.285C101.762 119.285 102.058 119.166 102.281 118.954L103.271 117.964L104.26 118.954C104.368 119.062 104.497 119.149 104.638 119.208C104.78 119.267 104.932 119.298 105.086 119.298C105.239 119.298 105.391 119.268 105.533 119.21C105.675 119.151 105.804 119.065 105.913 118.956C106.021 118.848 106.108 118.719 106.166 118.577C106.225 118.435 106.255 118.283 106.255 118.13C106.255 117.976 106.224 117.824 106.165 117.682C106.106 117.54 106.02 117.412 105.911 117.303L104.922 116.314L105.911 115.324C106.02 115.216 106.106 115.087 106.165 114.945C106.224 114.804 106.254 114.652 106.253 114.498Z" fill="#2E864E"/>
<path d="M23.0014 14C22.2102 13.9999 21.4368 14.2345 20.779 14.6739C20.1211 15.1134 19.6084 15.7381 19.3056 16.469C19.0028 17.1999 18.9235 18.0042 19.0778 18.7801C19.2321 19.5561 19.613 20.2688 20.1724 20.8283C20.7318 21.3877 21.4445 21.7687 22.2205 21.9231C22.9964 22.0775 23.8007 21.9983 24.5316 21.6956C25.2625 21.3928 25.8873 20.8801 26.3268 20.2223C26.7664 19.5645 27.001 18.7911 27.001 18C26.9998 16.9396 26.578 15.9229 25.8282 15.173C25.0784 14.4232 24.0618 14.0013 23.0014 14ZM23.0014 16.5804C23.2821 16.5805 23.5565 16.6637 23.7899 16.8197C24.0233 16.9757 24.2052 17.1973 24.3126 17.4567C24.42 17.716 24.4481 18.0014 24.3933 18.2767C24.3385 18.5521 24.2034 18.8049 24.0049 19.0034C23.8064 19.2019 23.5535 19.3371 23.2782 19.3919C23.0028 19.4467 22.7175 19.4186 22.4581 19.3111C22.1988 19.2037 21.9771 19.0218 21.8211 18.7884C21.6652 18.555 21.5819 18.2806 21.5819 17.9999C21.5823 17.6236 21.7319 17.2628 21.9981 16.9966C22.2642 16.7305 22.625 16.5808 23.0014 16.5804Z" fill="#2E864E"/>
<path d="M66.0728 37.9365C65.3743 37.9364 64.6916 38.1435 64.1108 38.5315C63.5301 38.9195 63.0774 39.471 62.8101 40.1163C62.5428 40.7616 62.4729 41.4716 62.6091 42.1566C62.7453 42.8417 63.0816 43.4709 63.5755 43.9648C64.0693 44.4587 64.6985 44.7951 65.3836 44.9314C66.0686 45.0676 66.7786 44.9977 67.4239 44.7305C68.0692 44.4632 68.6207 44.0106 69.0088 43.4299C69.3969 42.8492 69.604 42.1665 69.604 41.468C69.603 40.5318 69.2306 39.6342 68.5686 38.9721C67.9066 38.3101 67.009 37.9376 66.0728 37.9365ZM66.0728 40.2147C66.3206 40.2147 66.5629 40.2882 66.7689 40.426C66.975 40.5637 67.1356 40.7594 67.2304 40.9884C67.3252 41.2173 67.35 41.4693 67.3017 41.7124C67.2533 41.9554 67.134 42.1787 66.9587 42.354C66.7835 42.5292 66.5602 42.6486 66.3171 42.6969C66.0741 42.7453 65.8221 42.7205 65.5931 42.6257C65.3642 42.5308 65.1684 42.3702 65.0307 42.1642C64.893 41.9581 64.8195 41.7159 64.8195 41.468C64.8198 41.1357 64.9519 40.8171 65.1869 40.5822C65.4219 40.3472 65.7405 40.215 66.0728 40.2147Z" fill="#2E864E"/>
<path d="M68.0377 7.04688C67.0522 7.04688 66.0888 7.33913 65.2693 7.88668C64.4498 8.43422 63.8112 9.21248 63.434 10.123C63.0568 11.0336 62.9582 12.0355 63.1504 13.0021C63.3427 13.9687 63.8173 14.8566 64.5142 15.5535C65.2111 16.2504 66.099 16.725 67.0656 16.9173C68.0323 17.1095 69.0342 17.0108 69.9447 16.6337C70.8553 16.2565 71.6335 15.6178 72.181 14.7983C72.7286 13.9789 73.0208 13.0154 73.0208 12.0299C73.0193 10.7088 72.4938 9.4422 71.5596 8.50804C70.6254 7.57388 69.3589 7.0484 68.0377 7.04688ZM68.0377 14.295C67.5898 14.295 67.1519 14.1621 66.7794 13.9132C66.4069 13.6644 66.1166 13.3106 65.9452 12.8967C65.7737 12.4829 65.7289 12.0274 65.8163 11.5881C65.9037 11.1487 66.1194 10.7451 66.4362 10.4284C66.7529 10.1116 67.1565 9.89587 67.5959 9.80848C68.0352 9.72108 68.4907 9.76594 68.9045 9.93737C69.3184 10.1088 69.6721 10.3991 69.921 10.7716C70.1699 11.1441 70.3027 11.582 70.3027 12.03C70.302 12.6304 70.0632 13.2061 69.6385 13.6308C69.2139 14.0554 68.6382 14.2942 68.0377 14.295V14.295Z" fill="#2E864E"/>
<path d="M115.439 79C114.561 78.9999 113.703 79.2601 112.973 79.7477C112.244 80.2353 111.675 80.9283 111.339 81.7392C111.003 82.55 110.915 83.4423 111.086 84.3031C111.257 85.1639 111.68 85.9547 112.301 86.5753C112.921 87.1959 113.712 87.6186 114.573 87.7899C115.434 87.9611 116.326 87.8733 117.137 87.5374C117.948 87.2015 118.641 86.6328 119.128 85.903C119.616 85.1732 119.876 84.3153 119.876 83.4376C119.875 82.2611 119.407 81.1332 118.575 80.3013C117.743 79.4694 116.615 79.0014 115.439 79ZM115.439 85.3223C115.066 85.3223 114.702 85.2118 114.392 85.0048C114.082 84.7977 113.84 84.5034 113.697 84.159C113.555 83.8147 113.517 83.4357 113.59 83.0701C113.663 82.7045 113.842 82.3686 114.106 82.105C114.369 81.8414 114.705 81.6619 115.071 81.5891C115.436 81.5164 115.815 81.5537 116.16 81.6963C116.504 81.839 116.798 82.0805 117.006 82.3905C117.213 82.7004 117.323 83.0648 117.323 83.4376C117.323 83.9372 117.124 84.4161 116.771 84.7694C116.417 85.1227 115.939 85.3215 115.439 85.3223Z" fill="#2E864E"/>
</svg>
