<svg width="70" height="70" viewBox="0 0 70 70" fill="none" xmlns="http://www.w3.org/2000/svg">
<rect width="70" height="70" fill="#2F603D"/>
<path fill-rule="evenodd" clip-rule="evenodd" d="M31.5946 35.5809L41.48 23.8419C41.0163 16.0543 38.9639 8.43589 35.441 1.4585C31.5991 9.06778 29.5063 17.4394 29.3155 25.9614C29.6275 29.2606 30.3953 32.4977 31.5946 35.5809ZM31.1665 36.0892C29.5277 33.472 27.5307 31.0937 25.2315 29.0242C20.9295 25.8117 16.0894 23.3916 10.9381 21.8776C12.8351 26.7596 15.6025 31.2566 19.1058 35.15C21.4816 37.4463 24.1663 39.3953 27.08 40.942L31.1665 36.0892ZM26.2768 41.8957C24.2502 41.4958 22.1934 41.2617 20.1267 41.1962C15.239 41.5191 10.4242 42.5508 5.83337 44.2589C10.4242 45.9671 15.239 46.9988 20.1267 47.3218C20.6729 47.315 21.2187 47.2928 21.7634 47.2554L26.2768 41.8957ZM15.2063 66.7182L15.2097 66.7141L16.4897 67.792L25.9824 56.5195C28.8572 55.5156 31.5045 53.9256 33.7511 51.8385V59.3575H37.0294V51.8385C40.3444 54.8425 44.4372 56.8541 48.8406 57.6438C48.1955 54.9257 47.1821 52.3084 45.8284 49.8646C51.3131 49.7332 56.6621 48.1328 61.3176 45.2302C57.6365 43.1399 53.6944 41.5471 49.5943 40.4936C56.6738 35.1184 59.8938 28.0412 62.995 19.9398C60.1497 20.6299 57.3502 21.4923 54.612 22.5219L65.3151 9.81187L63.9333 8.64828L63.9536 8.62413L61.7206 6.74994L40.4012 32.1572L40.4286 32.0596L33.5479 40.2597L33.5663 40.3025L33.5551 40.316L33.5339 40.2764L31.3209 42.9138L31.3604 42.9313L31.2383 43.0767L31.1938 43.0653L28.5853 46.1739L28.651 46.1602L12.9732 64.844L15.2063 66.7182Z" fill="#D6E5DA"/>
</svg>
