<svg width="21" height="20" viewBox="0 0 21 20" fill="none" xmlns="http://www.w3.org/2000/svg">
<path fill-rule="evenodd" clip-rule="evenodd" d="M14.5839 5.45855C13.5422 4.46684 12.2255 3.95849 10.7504 3.95849C8.14196 3.95849 5.93354 5.71689 5.14185 8.09199L5.14184 8.09198V8.09289C4.94183 8.69292 4.82516 9.33461 4.82516 10.0013C4.82516 10.6674 4.93329 11.3085 5.14125 11.908H5.14185C5.93354 14.2831 8.14196 16.0415 10.7504 16.0415C12.1005 16.0415 13.2422 15.6748 14.1422 15.0748L14.1427 15.0752C15.1925 14.3669 15.9006 13.3253 16.1423 12.0921H10.7504V8.33366H20.1674C20.2674 8.94202 20.3258 9.56704 20.3258 10.2254C20.3258 13.2672 19.2424 15.834 17.359 17.5757H17.3581C15.7082 19.1003 13.45 20 10.7504 20C6.8424 20 3.46761 17.7505 1.82566 14.4843L1.82504 14.4848C1.14168 13.1348 0.75 11.618 0.75 10.0013C0.75 8.38457 1.14168 6.86785 1.82504 5.51779H1.82622L1.82505 5.51688C3.46678 2.25009 6.84191 0 10.7504 0C13.4505 0 15.7089 0.991706 17.434 2.60844L14.5839 5.45855Z" fill="#6B7280"/>
</svg>
