<svg width="40" height="40" viewBox="0 0 40 40" fill="none" xmlns="http://www.w3.org/2000/svg">
<path fill-rule="evenodd" clip-rule="evenodd" d="M20.525 3.33331C24.575 3.33331 25.165 3.35498 26.8717 3.43331C28.645 3.51498 29.8567 3.79665 30.9167 4.20831C32.0292 4.62644 33.0371 5.28224 33.87 6.12998C34.7178 6.96294 35.3736 7.97082 35.7917 9.08331C36.2034 10.1433 36.485 11.355 36.5667 13.1283C36.6467 14.9066 36.6667 15.4733 36.6667 20V20.1333C36.6667 24.5383 36.6467 25.1116 36.5667 26.8716C36.485 28.645 36.2034 29.8566 35.7917 30.9166C35.3736 32.0291 34.7178 33.037 33.87 33.87C33.0371 34.7177 32.0292 35.3735 30.9167 35.7916C29.8567 36.2033 28.645 36.485 26.8717 36.5667C25.0934 36.6466 24.5267 36.6666 20 36.6666H19.8667C15.4617 36.6666 14.8884 36.6466 13.1284 36.5667C11.355 36.485 10.1434 36.2033 9.08337 35.7916C7.97088 35.3735 6.963 34.7177 6.13004 33.87C5.2823 33.037 4.6265 32.0291 4.20837 30.9166C3.79671 29.8566 3.51504 28.645 3.43337 26.8716C3.35504 25.165 3.33337 24.5733 3.33337 20.525V19.475C3.33337 15.425 3.35504 14.835 3.43337 13.1283C3.51504 11.355 3.79671 10.1433 4.20837 9.08331C4.6265 7.97082 5.2823 6.96294 6.13004 6.12998C6.963 5.28224 7.97088 4.62644 9.08337 4.20831C10.1434 3.79665 11.355 3.51498 13.1284 3.43331C14.835 3.35498 15.4267 3.33331 19.475 3.33331H20.525ZM20.39 6.33665H19.61C15.5167 6.33665 14.97 6.35498 13.265 6.43331C11.64 6.50831 10.7584 6.77831 10.17 7.00665C9.39171 7.30998 8.83671 7.66998 8.25337 8.25331C7.67004 8.83665 7.31004 9.39165 7.00671 10.17C6.77837 10.7583 6.50671 11.64 6.43337 13.265C6.35504 14.97 6.33671 15.5166 6.33671 19.61V20.39C6.33671 24.4833 6.35504 25.03 6.43337 26.735C6.50837 28.36 6.77837 29.2416 7.00671 29.83C7.31004 30.6066 7.67171 31.1633 8.25337 31.7466C8.83671 32.33 9.39171 32.69 10.17 32.9933C10.7584 33.2216 11.64 33.4933 13.265 33.5666C15.0217 33.6466 15.5484 33.6633 20 33.6633H20.1334C24.4617 33.6633 24.995 33.6466 26.7334 33.5666C28.36 33.4916 29.2417 33.2216 29.83 32.9933C30.6067 32.69 31.1634 32.33 31.7467 31.7466C32.33 31.1633 32.69 30.6083 32.9934 29.83C33.2217 29.2416 33.4934 28.36 33.5667 26.735C33.6467 24.9766 33.6634 24.4516 33.6634 20V19.8666C33.6634 15.5383 33.6467 15.005 33.5667 13.2666C33.4917 11.64 33.2217 10.7583 32.9934 10.17C32.7263 9.44593 32.3003 8.79097 31.7467 8.25331C31.209 7.69975 30.5541 7.27375 29.83 7.00665C29.2417 6.77831 28.36 6.50665 26.735 6.43331C25.03 6.35498 24.4834 6.33665 20.39 6.33665ZM20 11.4416C21.1239 11.4416 22.2368 11.663 23.2752 12.0931C24.3135 12.5232 25.257 13.1536 26.0517 13.9483C26.8464 14.743 27.4768 15.6865 27.9069 16.7248C28.337 17.7632 28.5584 18.8761 28.5584 20C28.5584 21.1239 28.337 22.2368 27.9069 23.2751C27.4768 24.3135 26.8464 25.2569 26.0517 26.0516C25.257 26.8463 24.3135 27.4768 23.2752 27.9069C22.2368 28.3369 21.1239 28.5583 20 28.5583C17.7302 28.5583 15.5534 27.6566 13.9484 26.0516C12.3434 24.4466 11.4417 22.2698 11.4417 20C11.4417 17.7302 12.3434 15.5533 13.9484 13.9483C15.5534 12.3433 17.7302 11.4416 20 11.4416ZM20 14.445C18.5268 14.445 17.1138 15.0302 16.0721 16.072C15.0303 17.1138 14.445 18.5267 14.445 20C14.445 21.4733 15.0303 22.8862 16.0721 23.928C17.1138 24.9697 18.5268 25.555 20 25.555C21.4733 25.555 22.8863 24.9697 23.928 23.928C24.9698 22.8862 25.555 21.4733 25.555 20C25.555 18.5267 24.9698 17.1138 23.928 16.072C22.8863 15.0302 21.4733 14.445 20 14.445ZM28.8967 9.10331C29.4271 9.10331 29.9358 9.31403 30.3109 9.6891C30.686 10.0642 30.8967 10.5729 30.8967 11.1033C30.8967 11.6337 30.686 12.1425 30.3109 12.5175C29.9358 12.8926 29.4271 13.1033 28.8967 13.1033C28.3663 13.1033 27.8576 12.8926 27.4825 12.5175C27.1074 12.1425 26.8967 11.6337 26.8967 11.1033C26.8967 10.5729 27.1074 10.0642 27.4825 9.6891C27.8576 9.31403 28.3663 9.10331 28.8967 9.10331Z" fill="#9CA3AF"/>
</svg>
