<svg width="20" height="20" viewBox="0 0 20 20" fill="none" xmlns="http://www.w3.org/2000/svg">
<path d="M16 7.60002C17.9882 7.60002 19.6 5.98825 19.6 4.00002C19.6 2.0118 17.9882 0.400024 16 0.400024C14.0118 0.400024 12.4 2.0118 12.4 4.00002C12.4 4.15061 12.4092 4.29903 12.4272 4.44475L6.4991 7.4088C5.85163 6.7842 4.97067 6.40002 3.99999 6.40002C2.01177 6.40002 0.399994 8.0118 0.399994 10C0.399994 11.9882 2.01177 13.6 3.99999 13.6C4.9707 13.6 5.85167 13.2158 6.49914 12.5912L12.4272 15.5552C12.4092 15.701 12.4 15.8494 12.4 16C12.4 17.9882 14.0118 19.6 16 19.6C17.9882 19.6 19.6 17.9882 19.6 16C19.6 14.0118 17.9882 12.4 16 12.4C15.0293 12.4 14.1483 12.7842 13.5009 13.4088L7.57279 10.4448C7.59074 10.299 7.59999 10.1506 7.59999 10C7.59999 9.84942 7.59074 9.70098 7.57278 9.55524L13.5008 6.59121C14.1483 7.21583 15.0293 7.60002 16 7.60002Z" fill="#2F603D"/>
</svg>
