<svg width="40" height="40" viewBox="0 0 40 40" fill="none" xmlns="http://www.w3.org/2000/svg">
<path d="M13.8167 33.7557C26.395 33.7557 33.275 23.334 33.275 14.2973C33.275 14.0007 33.275 13.7057 33.255 13.414C34.5937 12.4449 35.7489 11.245 36.6667 9.87068C35.4185 10.424 34.0943 10.787 32.7384 10.9474C34.1661 10.0925 35.2346 8.74793 35.745 7.16402C34.4029 7.96049 32.9345 8.5219 31.4034 8.82402C30.3724 7.72696 29.0084 7.00041 27.5228 6.75686C26.0371 6.51331 24.5126 6.76635 23.1852 7.4768C21.8579 8.18725 20.8018 9.31547 20.1805 10.6868C19.5592 12.0581 19.4073 13.596 19.7484 15.0623C17.0294 14.9261 14.3694 14.2196 11.9411 12.9886C9.51285 11.7577 7.37059 10.0299 5.65337 7.91735C4.7789 9.42269 4.51102 11.2047 4.90427 12.9006C5.29751 14.5965 6.32232 16.0788 7.77004 17.0457C6.68214 17.0142 5.61776 16.7215 4.66671 16.1924V16.279C4.66736 17.8578 5.21403 19.3879 6.21404 20.6096C7.21404 21.8314 8.60582 22.6697 10.1534 22.9823C9.14639 23.2569 8.08986 23.2968 7.06504 23.099C7.50198 24.4581 8.35284 25.6467 9.49859 26.4984C10.6443 27.3501 12.0277 27.8223 13.455 27.849C12.0369 28.9633 10.413 29.7871 8.67625 30.2732C6.93948 30.7594 5.12391 30.8984 3.33337 30.6823C6.46105 32.6896 10.1004 33.7542 13.8167 33.749" fill="#9CA3AF"/>
</svg>
