<svg width="70" height="70" viewBox="0 0 70 70" fill="none" xmlns="http://www.w3.org/2000/svg">
<rect width="70" height="70" fill="#2F603D"/>
<path fill-rule="evenodd" clip-rule="evenodd" d="M20.7882 62.3756C25.6019 61.0244 29.644 59.9292 33.2688 56.3081V64.1665H36.7326V56.3081C40.418 59.9905 44.4292 61.033 49.2119 62.3756C48.3499 59.5948 47.6329 56.7222 46.0292 54.2452C52.5097 54.2379 56.7252 52.3244 62.3946 49.4016C58.3141 47.362 54.5171 45.402 50.0081 44.4514C57.4881 38.8335 60.8899 31.437 64.1667 22.9698C55.8992 25.1454 48.9493 27.2524 42.3413 33.0809C43.6019 21.9751 39.2713 12.8733 35 2.9165C30.7301 12.8758 26.3994 21.9726 27.6601 33.0809C21.0495 27.2524 14.1021 25.1441 5.83337 22.9698C9.1114 31.437 12.512 38.8335 19.9932 44.4514C15.4879 45.4007 11.6848 47.362 7.60676 49.4016C13.2798 52.3257 17.4879 54.2354 23.9721 54.2452C22.3684 56.7222 21.6514 59.5948 20.7882 62.3756Z" fill="#D6E5DA"/>
</svg>
