<svg width="21" height="20" viewBox="0 0 21 20" fill="none" xmlns="http://www.w3.org/2000/svg">
<path fill-rule="evenodd" clip-rule="evenodd" d="M10.3823 0C7.65925 0 7.31767 0.011512 6.24839 0.0601777C5.18113 0.108764 4.4523 0.277786 3.81453 0.525007C3.1455 0.776103 2.53944 1.16973 2.03861 1.67843C1.52844 2.17789 1.13366 2.78234 0.881798 3.44962C0.634117 4.08573 0.464645 4.81263 0.416128 5.87705C0.367133 6.9435 0.355591 7.28416 0.355591 10C0.355591 12.7159 0.367133 13.0565 0.416128 14.123C0.464844 15.1874 0.634316 15.9143 0.882196 16.5504C1.13396 17.2176 1.52864 17.8221 2.03869 18.3216C2.53952 18.8303 3.14558 19.2239 3.81461 19.475C4.45242 19.7222 5.18125 19.8912 6.24847 19.9398C7.31792 19.9885 7.65937 20 10.3824 20C13.1055 20 13.4471 19.9885 14.5164 19.9398C15.5837 19.8912 16.3125 19.7222 16.9503 19.475C18.2971 18.9555 19.3618 17.8936 19.8827 16.5504C20.1305 15.9143 20.3 15.1874 20.3487 14.123C20.3975 13.0564 20.4091 12.7158 20.4091 10C20.4091 7.2842 20.3975 6.9435 20.3487 5.87705C20.3 4.81263 20.1305 4.08573 19.8827 3.44966C19.6309 2.78241 19.2362 2.17796 18.7262 1.67847C18.2253 1.16966 17.6192 0.775958 16.9501 0.524808C16.3123 0.277786 15.5835 0.108764 14.5162 0.0603762C13.4469 0.0115116 13.1054 0 10.3823 0ZM10.3823 1.80183C13.0595 1.80183 13.3766 1.81203 14.434 1.86014C15.4116 1.90464 15.9425 2.06751 16.2958 2.20445C16.7313 2.36476 17.1253 2.62038 17.4487 2.95251C17.7817 3.27507 18.038 3.66797 18.1987 4.10231C18.336 4.45469 18.4994 4.98418 18.544 5.95917C18.5922 7.01367 18.6024 7.32992 18.6024 10.0001C18.6024 12.6703 18.5922 12.9865 18.544 14.0411C18.4993 15.0161 18.336 15.5455 18.1987 15.8979C17.8614 16.7701 17.1703 17.4594 16.2958 17.7958C15.9425 17.9327 15.4116 18.0957 14.434 18.1401C13.3769 18.1882 13.0598 18.1984 10.3823 18.1984C7.70475 18.1984 7.38778 18.1882 6.33055 18.1401C5.35296 18.0956 4.8221 17.9327 4.46874 17.7958C4.03324 17.6355 3.63929 17.3799 3.31587 17.0477C2.98286 16.7252 2.72656 16.3323 2.56582 15.8979C2.42851 15.5456 2.26517 15.0161 2.22059 14.0411C2.17235 12.9866 2.16212 12.6703 2.16212 10.0001C2.16212 7.32992 2.17235 7.01375 2.22059 5.95917C2.26521 4.98418 2.42851 4.45473 2.56582 4.10231C2.72658 3.66795 2.9829 3.27503 3.31595 2.95247C3.63938 2.62034 4.03332 2.36473 4.46882 2.20442C4.82214 2.06747 5.35304 1.90456 6.33063 1.8601C7.38794 1.81199 7.70503 1.80179 10.3824 1.80179L10.3823 1.80183ZM15.7345 5.86197C16.399 5.86197 16.9377 5.32472 16.9377 4.66199C16.9377 3.99926 16.399 3.46201 15.7345 3.46201C15.07 3.46201 14.5314 3.99926 14.5314 4.66199C14.5314 5.32472 15.07 5.86197 15.7345 5.86197ZM5.23343 10C5.23343 7.16395 7.53865 4.86487 10.3823 4.86487C13.2259 4.86487 15.5311 7.16395 15.5311 10C15.5311 12.8361 13.2259 15.1352 10.3823 15.1352C7.53865 15.1352 5.23343 12.8361 5.23343 10ZM7.04012 10C7.0401 11.8409 8.53644 13.3333 10.3823 13.3333C12.2281 13.3333 13.7245 11.841 13.7245 10C13.7245 8.1591 12.2282 6.66672 10.3823 6.66672C8.53649 6.66671 7.04013 8.15907 7.04012 10Z" fill="white"/>
</svg>
