<svg width="22" height="22" viewBox="0 0 22 22" fill="none" xmlns="http://www.w3.org/2000/svg">
<path d="M16.5 5.5V5.50917" stroke="#22A259" stroke-width="2" stroke-linecap="round" stroke-linejoin="round"/>
<path d="M16.5 11.9162L13.2917 7.3329C12.9829 6.77468 12.825 6.14553 12.8337 5.50763C12.8424 4.86972 13.0175 4.24513 13.3415 3.69557C13.6655 3.146 14.1273 2.69049 14.6812 2.37403C15.2351 2.05757 15.8621 1.89111 16.5 1.89111C17.138 1.89111 17.7649 2.05757 18.3189 2.37403C18.8728 2.69049 19.3346 3.146 19.6586 3.69557C19.9826 4.24513 20.1576 4.86972 20.1664 5.50763C20.1751 6.14553 20.0172 6.77468 19.7084 7.3329L16.5 11.9162Z" stroke="#22A259" stroke-width="2" stroke-linecap="round" stroke-linejoin="round"/>
<path d="M9.625 4.354L8.25 3.6665L2.75 6.4165V18.3332L8.25 15.5832L13.75 18.3332L19.25 15.5832V13.7498" stroke="#22A259" stroke-width="2" stroke-linecap="round" stroke-linejoin="round"/>
<path d="M8.25 3.6665V15.5832" stroke="#22A259" stroke-width="2" stroke-linecap="round" stroke-linejoin="round"/>
<path d="M13.75 13.75V18.3333" stroke="#22A259" stroke-width="2" stroke-linecap="round" stroke-linejoin="round"/>
</svg>
