<svg width="24" height="24" viewBox="0 0 24 24" fill="none" xmlns="http://www.w3.org/2000/svg">
<mask id="path-1-inside-1_3624_63331" fill="white">
<path d="M17.9397 16.7397C21.2201 13.4593 21.2201 8.14073 17.9397 4.86033C14.6593 1.57992 9.34071 1.57992 6.06031 4.86033C2.77991 8.14073 2.77991 13.4593 6.06031 16.7397L12 22.6794L17.9397 16.7397Z"/>
</mask>
<path d="M17.9397 16.7397C21.2201 13.4593 21.2201 8.14073 17.9397 4.86033C14.6593 1.57992 9.34071 1.57992 6.06031 4.86033C2.77991 8.14073 2.77991 13.4593 6.06031 16.7397L12 22.6794L17.9397 16.7397Z" fill="#D1D5DB"/>
<path d="M6.06031 16.7397L5.52998 17.2701L6.06031 16.7397ZM12 22.6794L11.4697 23.2097L12 23.7401L12.5303 23.2097L12 22.6794ZM17.4094 5.39066C20.3969 8.37817 20.3969 13.2219 17.4094 16.2094L18.47 17.2701C22.0433 13.6968 22.0433 7.9033 18.47 4.33L17.4094 5.39066ZM6.59064 5.39066C9.57815 2.40315 14.4219 2.40315 17.4094 5.39066L18.47 4.33C14.8967 0.7567 9.10328 0.7567 5.52998 4.33L6.59064 5.39066ZM6.59064 16.2094C3.60313 13.2219 3.60313 8.37817 6.59064 5.39066L5.52998 4.33C1.95668 7.9033 1.95668 13.6968 5.52998 17.2701L6.59064 16.2094ZM12.5303 22.1491L6.59064 16.2094L5.52998 17.2701L11.4697 23.2097L12.5303 22.1491ZM17.4094 16.2094L11.4697 22.1491L12.5303 23.2097L18.47 17.2701L17.4094 16.2094Z" fill="#374151" mask="url(#path-1-inside-1_3624_63331)"/>
<path fill-rule="evenodd" clip-rule="evenodd" d="M9.49408 15.4507C10.3429 15.2086 11.0556 15.0125 11.6947 14.3638V15.7715H12.3055V14.3638C12.9553 15.0234 13.6626 15.2102 14.5059 15.4507C14.3539 14.9526 14.2275 14.438 13.9447 13.9943C15.0874 13.993 15.8307 13.6503 16.8304 13.1267C16.1109 12.7614 15.4414 12.4103 14.6463 12.24C15.9652 11.2337 16.5651 9.90879 17.1429 8.39209C15.6851 8.7818 14.4596 9.15922 13.2945 10.2033C13.5167 8.21392 12.7531 6.58356 12 4.80005C11.2471 6.584 10.4835 8.21348 10.7058 10.2033C9.54016 9.15922 8.31515 8.78158 6.85715 8.39209C7.43515 9.90879 8.03477 11.2337 9.3539 12.24C8.5595 12.4101 7.88891 12.7614 7.16984 13.1267C8.17016 13.6505 8.91215 13.9926 10.0555 13.9943C9.77271 14.438 9.64628 14.9526 9.49408 15.4507Z" fill="#374151"/>
</svg>
