<svg width="29" height="29" viewBox="0 0 29 29" fill="none" xmlns="http://www.w3.org/2000/svg">
<path d="M26.6625 20.455C26.575 19.405 26.4 18.355 26.3125 17.3925C26.225 16.78 26.1375 16.255 26.05 15.6425L25.9625 14.855C25.7875 13.3675 25.6125 11.88 25.4375 10.3925C25.35 9.60502 25.2625 8.03002 24.0375 7.68002C23.5125 7.33002 21.9375 6.54252 17.3875 4.26752C16.1625 3.65502 15.025 3.13002 14.325 2.69252C14.2375 2.60502 14.15 2.60502 13.975 2.60502C13.975 2.25502 13.625 2.08002 13.275 2.08002C10.3 2.60502 7.50001 3.56752 4.78751 4.88002C4.35001 5.14252 3.82501 5.31752 3.30001 5.40502C3.21251 5.40502 3.12501 5.40502 3.03751 5.40502C2.68751 5.31752 2.33751 5.58002 2.33751 5.93002C2.25001 6.45502 2.33751 8.81752 2.42501 12.405C2.51251 14.2425 2.51251 16.08 2.51251 16.3425C2.33751 17.2175 2.77501 18.0925 3.47501 18.6175C4.17501 19.1425 4.78751 19.58 5.40001 20.0175C6.62501 20.98 7.76251 21.7675 9.33751 22.9925L9.42501 23.08C12.575 25.705 13.0125 26.1425 13.1 26.23C13.1 26.23 13.1875 26.3175 13.275 26.3175C13.275 26.3175 13.3625 26.3175 13.3625 26.405C13.3625 26.405 13.3625 26.405 13.45 26.405C13.5375 26.405 13.5375 26.405 13.625 26.405C13.7125 26.405 13.8 26.405 13.8 26.405C13.8 26.405 13.8 26.405 13.8875 26.405C13.975 26.405 13.975 26.3175 14.0625 26.3175C14.15 26.3175 14.15 26.23 14.15 26.1425V26.055C14.15 26.055 14.15 26.055 14.15 25.9675C17.7375 24.9175 21.4125 23.78 25.175 22.6425C26.4875 22.4675 26.8375 21.9425 26.6625 20.455ZM13.3625 3.39252C13.3625 3.56752 13.5375 3.74252 13.7125 3.83002C14.5 4.18002 15.55 4.79252 16.775 5.40502C18.4375 6.28002 20.7125 7.41752 22.1125 8.11752C21.4125 8.46752 20.7125 8.81752 19.925 8.99252C19.575 9.16752 19.225 9.25502 18.875 9.34252C18.6125 8.90502 18.2625 8.46752 17.825 8.03002C16.95 7.33002 16.075 6.71752 15.2 6.01752C14.5875 5.58002 13.8875 5.05502 13.275 4.61752C12.8375 4.35502 12.4 4.00502 12.05 3.65502C12.4875 3.56752 12.925 3.48002 13.3625 3.39252ZM13.3625 11.705C13.275 11.705 13.275 11.7925 13.275 11.7925C12.75 11.4425 12.3125 11.0925 11.7875 10.7425C10.3875 9.78002 8.90001 8.73002 7.50001 7.76752C6.80001 7.24252 6.18751 6.63002 5.57501 6.01752C6.18751 5.66752 6.88751 5.40502 7.58751 5.14252C8.02501 5.58002 8.98751 6.36752 10.125 7.15502C11.525 8.20502 13.7125 9.78002 14.85 10.7425C14.7625 10.83 14.675 10.83 14.5875 11.005C14.2375 11.2675 13.8875 11.53 13.3625 11.705ZM16.425 10.3925C15.725 9.69252 14.15 8.46752 10.9125 6.10502C10.125 5.49252 9.42501 5.05502 8.90001 4.61752C9.42501 4.44252 10.0375 4.26752 10.5625 4.09252C10.5625 4.18002 10.65 4.26752 10.7375 4.35502C11.35 4.88002 11.9625 5.31752 12.4875 5.75502C13.1 6.19252 13.8 6.71752 14.4125 7.15502C15.2875 7.76752 16.1625 8.46752 16.95 9.08002C17.2125 9.34252 17.3875 9.60502 17.5625 9.86752L16.425 10.3925ZM18.175 11.005C18.175 11.18 18.2625 11.4425 18.2625 11.6175C18.4375 12.755 18.6125 13.8925 18.7 14.9425C18.7 15.205 18.6125 15.555 18.4375 15.73C18.2625 15.905 18 16.08 17.65 16.08H17.5625C17.475 15.9925 17.475 15.73 17.475 15.555C17.3875 14.5925 17.3 13.63 17.2125 12.4925L17.125 11.53L18.175 11.005ZM10.125 22.03C8.55001 20.7175 7.41251 19.93 6.18751 18.9675C5.57501 18.53 4.96251 18.0925 4.26251 17.5675C3.91251 17.305 3.73751 16.955 3.82501 16.43C3.82501 16.08 3.82501 14.68 3.73751 12.3175C3.65001 10.48 3.56251 7.85502 3.56251 6.63002C3.73751 6.63002 4.00001 6.54252 4.17501 6.45502C4.17501 6.54252 4.26251 6.63002 4.35001 6.63002C5.05001 7.50502 5.83751 8.11752 6.62501 8.81752C8.02501 9.86752 9.51251 10.83 11 11.88C11.4375 12.23 11.9625 12.4925 12.4 12.8425C12.4 13.0175 12.4 13.28 12.4 13.3675L12.4875 14.5925C12.575 16.6925 12.8375 22.03 12.925 24.48C12.4 23.955 11.525 23.255 10.3 22.205L10.125 22.03ZM25.4375 21.33C25.4375 21.33 25.2625 21.4175 24.825 21.5925C21.2375 22.6425 17.7375 23.78 14.2375 24.7425C14.2375 23.3425 14.0625 20.5425 13.8 14.4175L13.7125 13.1925C13.7125 12.755 13.7125 12.8425 13.8 12.8425C14.4125 12.6675 15.025 12.3175 15.55 11.88C15.6375 11.7925 15.6375 11.7925 15.8125 11.7925L15.9 12.58C15.9875 13.63 16.075 14.68 16.1625 15.6425C16.25 15.9925 16.3375 16.955 16.95 17.2175H17.0375C17.2125 17.305 17.3875 17.305 17.5625 17.305H17.65C18.2625 17.305 18.875 17.0425 19.3125 16.5175C19.75 16.08 20.0125 15.4675 19.925 14.7675C19.8375 13.63 19.6625 12.405 19.4875 11.355C19.4875 11.0925 19.4 10.7425 19.4 10.48C19.75 10.3925 20.0125 10.305 20.275 10.13C21.15 9.86752 22.025 9.51752 22.8125 9.08002C22.8125 9.08002 22.9 9.08002 22.9 8.99252C23.075 8.81752 23.3375 8.73002 23.6 8.81752C23.8625 8.81752 24.0375 9.34252 24.125 10.3925C24.2125 11.88 24.475 13.455 24.65 14.855L24.7375 15.6425C24.825 16.255 24.9125 16.78 25 17.3925C25.175 18.355 25.2625 19.405 25.35 20.455C25.4375 21.155 25.4375 21.33 25.4375 21.33Z" fill="#9CA3AF"/>
<path d="M7.32507 11.8801C7.15007 11.7051 6.97507 11.6176 6.80007 11.6176C6.71257 11.6176 6.71257 11.6176 6.62507 11.6176C6.36257 11.6176 6.18757 11.7926 6.10007 11.8801C5.57507 12.4051 5.13757 13.1051 4.87507 13.8926C4.78757 14.2426 4.87507 14.5926 5.22507 14.7676C5.31257 14.7676 5.40007 14.8551 5.48757 14.8551C5.75007 14.8551 6.01257 14.6801 6.10007 14.4176C6.18757 14.2426 6.27507 13.9801 6.36257 13.8051C6.45007 15.0301 6.53757 16.3426 6.45007 17.5676C6.45007 17.9176 6.71257 18.2676 7.06257 18.2676C7.41257 18.2676 7.67507 18.0051 7.67507 17.6551C7.67507 16.4301 7.67507 15.1176 7.58757 13.8926L8.20007 14.4176C8.46257 14.6801 8.90007 14.5926 9.16257 14.3301C9.42507 14.0676 9.33757 13.6301 9.07507 13.3676L7.32507 11.8801Z" fill="#9CA3AF"/>
</svg>
