<svg width="70" height="70" viewBox="0 0 70 70" fill="none" xmlns="http://www.w3.org/2000/svg">
<rect width="70" height="70" fill="#2F603D"/>
<path d="M5.83337 46.4372C5.83337 46.4372 13.8794 49.5516 19.9138 49.5516C23.3998 49.5516 27.8844 48.5405 31.0575 47.6851C30.1322 48.1377 29.0873 48.7595 27.9598 49.6326C23.9368 52.747 22.9311 56.8996 22.9311 56.8996C22.9311 56.8996 27.3785 55.5323 30.9771 52.747C32.4676 51.5936 33.4039 50.4403 33.9943 49.4447V64.1665H36.0058V49.4447C36.5962 50.4403 37.5325 51.5926 39.023 52.747C42.6216 55.5323 47.069 56.8996 47.069 56.8996C47.069 56.8996 46.0633 52.747 42.0403 49.6326C40.9128 48.7595 39.8679 48.1377 38.9426 47.6851C42.1157 48.5405 46.6003 49.5516 50.0863 49.5516C56.1207 49.5516 64.1667 46.4372 64.1667 46.4372C64.1667 46.4372 56.1207 43.3228 50.0863 43.3228C45.9315 43.3228 40.3466 44.8375 37.27 45.7811C40.588 44.5655 46.547 41.8663 51.092 37.175C56.1207 31.9843 59.138 23.6792 59.138 23.6792C59.138 23.6792 50.6294 26.1541 45.0575 30.9462C41.4107 34.0824 38.501 39.1111 36.7681 42.6034C38.5483 38.4322 41.0345 31.8857 41.0345 27.8318C41.0345 14.336 35 2.9165 35 2.9165C35 2.9165 28.9656 14.336 28.9656 27.8318C28.9656 31.8857 31.4518 38.4322 33.2319 42.6034C31.499 39.1111 28.5894 34.0824 24.9426 30.9462C19.3707 26.1541 10.8621 23.6792 10.8621 23.6792C10.8621 23.6792 13.8794 31.9843 18.9081 37.175C23.4531 41.8663 29.4121 44.5655 32.7301 45.7811C29.6535 44.8375 24.0696 43.3228 19.9138 43.3228C13.8794 43.3228 5.83337 46.4372 5.83337 46.4372Z" fill="#D6E5DA"/>
</svg>
