<svg width="29" height="29" viewBox="0 0 29 29" fill="none" xmlns="http://www.w3.org/2000/svg">
<g clip-path="url(#clip0)">
<path d="M4.34202 24.4397C4.33475 24.4397 4.32781 24.4394 4.32054 24.4391C4.26728 24.4363 4.21509 24.4231 4.16695 24.4002C4.11881 24.3772 4.07565 24.345 4.03996 24.3054C4.00427 24.2658 3.97673 24.2195 3.95893 24.1693C3.94113 24.119 3.93341 24.0657 3.93621 24.0124C4.13735 20.1645 4.06623 16.3071 3.72338 12.4692C3.7138 12.3619 3.74719 12.2553 3.81622 12.1726C3.88525 12.0899 3.98427 12.0381 4.09153 12.0284C4.14475 12.023 4.1985 12.0284 4.24963 12.0441C4.30076 12.0598 4.34824 12.0855 4.3893 12.1198C4.43035 12.1541 4.46415 12.1962 4.48872 12.2437C4.51328 12.2913 4.52812 12.3432 4.53237 12.3965C4.87851 16.2727 4.95029 20.1685 4.74717 24.0547C4.74177 24.1586 4.69673 24.2564 4.62136 24.328C4.54598 24.3997 4.446 24.4396 4.34202 24.4397Z" fill="#9CA3AF" stroke="#9CA3AF" stroke-width="0.5"/>
<path d="M24.7728 24.3066H24.7705C24.6628 24.3059 24.5597 24.2625 24.484 24.186C24.4083 24.1094 24.3661 24.0058 24.3666 23.8981L24.4403 11.5357C24.441 11.4284 24.4841 11.3257 24.5602 11.2501C24.6363 11.1744 24.7392 11.1319 24.8465 11.1318H24.8488C24.9565 11.1325 25.0595 11.1759 25.1353 11.2525C25.211 11.329 25.2532 11.4326 25.2526 11.5403L25.1789 23.9027C25.1783 24.01 25.1352 24.1127 25.0591 24.1884C24.983 24.264 24.8801 24.3065 24.7728 24.3066Z" fill="#9CA3AF" stroke="#9CA3AF" stroke-width="0.5"/>
<path d="M4.41474 24.8115C4.30726 24.8115 4.20415 24.7689 4.12801 24.6931C4.05186 24.6173 4.00888 24.5143 4.00849 24.4068C4.00809 24.2994 4.05032 24.1961 4.12591 24.1197C4.2015 24.0433 4.30429 24 4.41176 23.9992C11.1807 23.9486 18.0379 23.7649 24.792 23.4533C24.8455 23.4497 24.8992 23.457 24.9498 23.4747C25.0004 23.4923 25.0469 23.5201 25.0866 23.5562C25.1262 23.5923 25.1581 23.636 25.1804 23.6848C25.2027 23.7336 25.2149 23.7863 25.2163 23.8399C25.2189 23.8932 25.2109 23.9464 25.1928 23.9966C25.1747 24.0467 25.1469 24.0929 25.111 24.1323C25.0751 24.1717 25.0318 24.2036 24.9835 24.2263C24.9352 24.2489 24.883 24.2618 24.8297 24.2643C18.065 24.5766 11.1973 24.7606 4.41771 24.8115L4.41474 24.8115Z" fill="#9CA3AF" stroke="#9CA3AF" stroke-width="0.5"/>
<path d="M11.723 24.3066C11.6155 24.3065 11.5125 24.2639 11.4364 24.1881C11.3603 24.1123 11.3173 24.0095 11.3168 23.9021L11.2745 14.2332C11.2741 14.1255 11.3165 14.0221 11.3923 13.9456C11.4682 13.8691 11.5713 13.8259 11.679 13.8254H11.6807C11.7881 13.8255 11.8911 13.8681 11.9672 13.9439C12.0433 14.0197 12.0863 14.1225 12.0868 14.2299L12.1291 23.8988C12.1295 24.0065 12.0871 24.1099 12.0113 24.1864C11.9354 24.2629 11.8323 24.3061 11.7246 24.3066H11.723Z" fill="#9CA3AF" stroke="#9CA3AF" stroke-width="0.5"/>
<path d="M6.81617 14.6797C6.7103 14.6796 6.60863 14.6382 6.53285 14.5643C6.45707 14.4903 6.41317 14.3897 6.4105 14.2839C6.40783 14.178 6.4466 14.0753 6.51855 13.9976C6.5905 13.92 6.68995 13.8735 6.79569 13.8681L11.5911 13.6225C11.6444 13.6197 11.6978 13.6274 11.7481 13.6452C11.7984 13.663 11.8448 13.6905 11.8845 13.7262C11.9241 13.762 11.9564 13.8052 11.9793 13.8534C12.0023 13.9016 12.0155 13.9538 12.0183 14.0072C12.021 14.0605 12.0132 14.1138 11.9953 14.1641C11.9774 14.2144 11.9497 14.2607 11.9139 14.3003C11.8781 14.3399 11.8348 14.372 11.7866 14.3949C11.7383 14.4178 11.686 14.4309 11.6327 14.4335L6.8373 14.679C6.83038 14.6794 6.82312 14.6797 6.81617 14.6797Z" fill="#9CA3AF" stroke="#9CA3AF" stroke-width="0.5"/>
<path d="M6.75548 24.5726C6.64857 24.5725 6.546 24.5304 6.46997 24.4552C6.39395 24.3801 6.3506 24.278 6.34933 24.1711L6.23763 14.2376C6.23649 14.1299 6.27814 14.0261 6.35342 13.9491C6.4287 13.8721 6.53146 13.8281 6.63915 13.8268H6.64378C6.7507 13.8268 6.85331 13.8689 6.92934 13.9441C7.00538 14.0193 7.04871 14.1214 7.04992 14.2283L7.16162 24.1618C7.16276 24.2695 7.12112 24.3733 7.04584 24.4503C6.97056 24.5273 6.86779 24.5713 6.7601 24.5726H6.75548Z" fill="#9CA3AF" stroke="#9CA3AF" stroke-width="0.5"/>
<path d="M13.9183 20.5746C13.8153 20.5745 13.7162 20.5352 13.641 20.4648C13.5658 20.3944 13.5203 20.298 13.5135 20.1952C13.3888 18.3129 13.3837 16.4245 13.498 14.5416C13.5006 14.4881 13.5139 14.4357 13.5371 14.3875C13.5603 14.3392 13.5928 14.2961 13.6329 14.2606C13.673 14.2251 13.7198 14.198 13.7705 14.1809C13.8212 14.1638 13.8748 14.157 13.9282 14.1609C14.0357 14.1675 14.1362 14.2165 14.2076 14.2972C14.279 14.3779 14.3154 14.4836 14.3089 14.5911C14.1966 16.4398 14.2015 18.2937 14.3238 20.1417C14.3274 20.1949 14.3204 20.2483 14.3033 20.2988C14.2862 20.3493 14.2593 20.3959 14.2241 20.436C14.189 20.4761 14.1463 20.5089 14.0985 20.5325C14.0506 20.5561 13.9986 20.5701 13.9454 20.5736C13.9365 20.5742 13.9272 20.5746 13.9183 20.5746Z" fill="#9CA3AF" stroke="#9CA3AF" stroke-width="0.5"/>
<path d="M22.1069 20.3049C22.0022 20.3048 21.9016 20.2642 21.826 20.1917C21.7504 20.1191 21.7058 20.0202 21.7015 19.9156C21.6231 18.0223 21.6301 16.103 21.7226 14.2107C21.7279 14.1032 21.7756 14.0021 21.8554 13.9298C21.9351 13.8575 22.0404 13.8198 22.1479 13.8251C22.2555 13.8303 22.3565 13.8781 22.4288 13.9579C22.5011 14.0376 22.5388 14.1428 22.5336 14.2504C22.4424 16.1182 22.4354 18.0128 22.5131 19.8819C22.5175 19.9895 22.479 20.0945 22.4061 20.1737C22.3332 20.253 22.2317 20.3 22.1241 20.3045L22.1069 20.3049Z" fill="#9CA3AF" stroke="#9CA3AF" stroke-width="0.5"/>
<path d="M14.4827 20.9096C14.3793 20.9095 14.2799 20.8699 14.2047 20.7989C14.1295 20.728 14.0841 20.631 14.0779 20.5278C14.0717 20.4246 14.1051 20.3229 14.1713 20.2435C14.2375 20.164 14.3315 20.1128 14.4342 20.1003C16.9292 19.8017 19.4398 19.6531 21.9526 19.6552C22.0602 19.6556 22.1632 19.6987 22.239 19.7749C22.3148 19.8512 22.3573 19.9544 22.3571 20.062C22.357 20.1695 22.3141 20.2726 22.2381 20.3486C22.162 20.4246 22.0589 20.4674 21.9513 20.4675C21.8886 20.4642 21.8257 20.4641 21.7629 20.4671C19.3462 20.4675 16.9317 20.6143 14.5326 20.9066C14.5161 20.9086 14.4994 20.9096 14.4827 20.9096Z" fill="#9CA3AF" stroke="#9CA3AF" stroke-width="0.5"/>
<path d="M14.0826 14.6532C13.9751 14.6532 13.872 14.6106 13.7958 14.5348C13.7197 14.4589 13.6767 14.356 13.6763 14.2485C13.6759 14.141 13.7181 14.0378 13.7937 13.9614C13.8693 13.885 13.9721 13.8416 14.0796 13.8409L21.9487 13.7837H21.9516C22.0591 13.7837 22.1622 13.8262 22.2384 13.9021C22.3145 13.9779 22.3575 14.0809 22.3579 14.1884C22.3583 14.2958 22.3161 14.3991 22.2405 14.4755C22.1649 14.5519 22.0621 14.5952 21.9546 14.596L14.0855 14.6532H14.0826Z" fill="#9CA3AF" stroke="#9CA3AF" stroke-width="0.5"/>
<path d="M2.73259 12.4752C2.33749 12.469 1.95509 12.3346 1.64305 12.0922C1.331 11.8498 1.10622 11.5125 1.00259 11.1312C0.989601 11.0792 0.987002 11.0253 0.994943 10.9723C1.00288 10.9194 1.02121 10.8686 1.04886 10.8227C1.07651 10.7769 1.11295 10.737 1.15607 10.7053C1.1992 10.6736 1.24816 10.6507 1.30016 10.638C1.35215 10.6253 1.40614 10.623 1.45903 10.6312C1.51192 10.6394 1.56266 10.658 1.60834 10.6859C1.65402 10.7138 1.69374 10.7504 1.72521 10.7937C1.75669 10.837 1.77929 10.8861 1.79174 10.9382C1.85582 11.1564 1.99198 11.3464 2.17798 11.4772C2.36398 11.6081 2.58885 11.672 2.81586 11.6586C3.04071 11.6242 3.24725 11.5146 3.40175 11.3477C3.55625 11.1808 3.64958 10.9664 3.66649 10.7396C3.66934 10.6355 3.71204 10.5365 3.78578 10.4631C3.85952 10.3896 3.95866 10.3473 4.06272 10.3448C4.16712 10.3411 4.26886 10.3782 4.34626 10.4484C4.42367 10.5185 4.47062 10.6161 4.47712 10.7204C4.50194 10.9271 4.59652 11.1191 4.74523 11.2647C4.89394 11.4104 5.08789 11.5009 5.29503 11.5215C5.50306 11.5228 5.70534 11.4533 5.86864 11.3244C6.03193 11.1955 6.14652 11.0149 6.19357 10.8123C6.2096 10.7248 6.25388 10.645 6.31962 10.5851C6.38536 10.5252 6.46894 10.4886 6.55752 10.4808C6.6461 10.473 6.73479 10.4945 6.80999 10.5419C6.88519 10.5894 6.94274 10.6602 6.97381 10.7435C7.06005 10.9758 7.21896 11.1741 7.4269 11.3089C7.63484 11.4437 7.88073 11.5078 8.12801 11.4917C8.3753 11.4756 8.61078 11.3801 8.79948 11.2195C8.98817 11.0589 9.12 10.8416 9.17538 10.6001C9.19553 10.5128 9.24394 10.4347 9.31308 10.3778C9.38223 10.3209 9.46824 10.2884 9.55773 10.2855L9.57127 10.2851C9.65848 10.2852 9.74336 10.3133 9.81336 10.3653C9.88335 10.4173 9.93473 10.4905 9.9599 10.574C10.0359 10.8253 10.1878 11.0469 10.3949 11.2084C10.6019 11.3698 10.8539 11.4631 11.1162 11.4755C11.3785 11.4878 11.6381 11.4186 11.8595 11.2774C12.0808 11.1361 12.2529 10.9297 12.3522 10.6867C12.3824 10.6126 12.4339 10.5491 12.5001 10.5042C12.5663 10.4592 12.6443 10.4348 12.7243 10.434C12.8048 10.4303 12.8845 10.4519 12.9521 10.4959C13.0197 10.5398 13.0718 10.6039 13.101 10.6791C13.2152 10.9436 13.4115 11.1644 13.6608 11.309C13.9101 11.4535 14.1992 11.5141 14.4856 11.4818C14.7719 11.4495 15.0403 11.326 15.2511 11.1295C15.462 10.9331 15.6041 10.6741 15.6565 10.3907C15.6748 10.2913 15.7297 10.2023 15.8102 10.1411C15.8907 10.0799 15.9912 10.051 16.0919 10.06C16.1926 10.0689 16.2864 10.1152 16.3548 10.1897C16.4232 10.2642 16.4614 10.3615 16.4619 10.4626C16.4627 10.6969 16.5518 10.9223 16.7113 11.094C16.8709 11.2656 17.0892 11.3709 17.3228 11.3889C17.5564 11.4069 17.7883 11.3363 17.9722 11.1911C18.1562 11.0459 18.2787 10.8368 18.3154 10.6054C18.3289 10.521 18.3686 10.443 18.4289 10.3825C18.4892 10.322 18.5671 10.282 18.6514 10.2683C18.7357 10.2546 18.8223 10.2678 18.8986 10.3061C18.975 10.3444 19.0374 10.4058 19.0768 10.4816C19.1875 10.6874 19.3512 10.8599 19.551 10.9811C19.7508 11.1022 19.9793 11.1678 20.213 11.1708H20.2193C20.4541 11.1665 20.6834 11.0992 20.8833 10.976C21.0833 10.8527 21.2464 10.6781 21.3557 10.4702C21.3925 10.3979 21.4501 10.3383 21.521 10.299C21.592 10.2597 21.6731 10.2426 21.7538 10.2498C21.8346 10.257 21.9114 10.2883 21.9743 10.3395C22.0371 10.3908 22.0832 10.4596 22.1066 10.5373C22.1931 10.7941 22.3561 11.0183 22.5738 11.1797C22.7915 11.3411 23.0534 11.432 23.3243 11.4401H23.3366C23.6094 11.4283 23.872 11.3324 24.0883 11.1658C24.3047 10.9991 24.4643 10.7697 24.5454 10.5089C24.5662 10.4337 24.6081 10.3661 24.6663 10.3141C24.7245 10.2622 24.7964 10.2281 24.8734 10.2159C24.9504 10.2037 25.0293 10.214 25.1007 10.2454C25.172 10.2769 25.2328 10.3283 25.2758 10.3934C25.4049 10.5562 25.5686 10.6884 25.7549 10.7805C25.9412 10.8727 26.1456 10.9224 26.3534 10.9263C26.5612 10.9301 26.7673 10.8879 26.9569 10.8026C27.1464 10.7174 27.3148 10.5913 27.4499 10.4334C27.4809 10.39 27.5201 10.3531 27.5653 10.3248C27.6105 10.2966 27.6609 10.2776 27.7135 10.2688C27.7661 10.26 27.8199 10.2616 27.8718 10.2737C27.9238 10.2857 27.9728 10.3078 28.0162 10.3388C28.0596 10.3697 28.0965 10.409 28.1247 10.4542C28.153 10.4994 28.172 10.5498 28.1808 10.6023C28.1896 10.6549 28.188 10.7087 28.1759 10.7607C28.1639 10.8126 28.1418 10.8617 28.1108 10.9051C27.905 11.1771 27.6362 11.3951 27.3274 11.5402C27.0187 11.6854 26.6793 11.7533 26.3385 11.7382C25.8768 11.7346 25.4276 11.5877 25.053 11.3179C24.8636 11.5985 24.6098 11.8298 24.3129 11.9924C24.0159 12.1549 23.6843 12.2441 23.3458 12.2524H23.3234C22.9982 12.2485 22.6782 12.1699 22.3883 12.0227C22.0983 11.8755 21.846 11.6636 21.6509 11.4034C21.2636 11.7672 20.7548 11.9739 20.2236 11.9831H20.2133C19.6988 11.9771 19.2039 11.7854 18.8194 11.4435C18.6448 11.6911 18.4102 11.8902 18.1375 12.0223C17.8649 12.1544 17.5631 12.2151 17.2606 12.1986C17.0141 12.1747 16.7753 12.0992 16.5598 11.9772C16.3442 11.8551 16.1568 11.6892 16.0094 11.49C15.6538 11.9325 15.1399 12.219 14.5765 12.2888C14.235 12.322 13.8905 12.2752 13.5702 12.152C13.25 12.0288 12.9628 11.8327 12.7315 11.5793C12.5357 11.8044 12.2933 11.9845 12.0212 12.1069C11.749 12.2294 11.4535 12.2914 11.1551 12.2886C10.8567 12.2859 10.5624 12.2184 10.2926 12.0909C10.0227 11.9634 9.78375 11.779 9.59209 11.5502C9.42062 11.7724 9.20304 11.9548 8.95432 12.0849C8.7056 12.215 8.43165 12.2896 8.15132 12.3037C7.87099 12.3178 7.59094 12.2709 7.33045 12.1664C7.06995 12.0619 6.8352 11.9022 6.64234 11.6982C6.47557 11.9045 6.26313 12.0692 6.02179 12.1792C5.78045 12.2893 5.51682 12.3417 5.25174 12.3324C4.81139 12.3021 4.40034 12.1008 4.10634 11.7716C3.96228 11.9622 3.78139 12.1219 3.57441 12.2413C3.36743 12.3606 3.13858 12.4371 2.90145 12.4663C2.84536 12.4722 2.78899 12.4752 2.73259 12.4752Z" fill="#9CA3AF" stroke="#9CA3AF" stroke-width="0.5"/>
<path d="M28.3743 10.8879C28.311 10.888 28.2486 10.8733 28.192 10.8449C28.1354 10.8166 28.0863 10.7754 28.0484 10.7247C26.7074 8.92601 25.2592 7.20981 23.7117 5.5854C23.638 5.50729 23.5982 5.40316 23.601 5.29579C23.6039 5.18841 23.6492 5.08654 23.7269 5.01247C23.8047 4.9384 23.9087 4.89816 24.0161 4.90055C24.1235 4.90295 24.2255 4.94778 24.2999 5.02525C25.8699 6.67331 27.339 8.41451 28.6995 10.2394C28.7445 10.2997 28.7718 10.3714 28.7784 10.4463C28.7851 10.5213 28.7707 10.5967 28.737 10.664C28.7032 10.7313 28.6514 10.7878 28.5874 10.8274C28.5233 10.8669 28.4496 10.8879 28.3743 10.8879H28.3743Z" fill="#9CA3AF" stroke="#9CA3AF" stroke-width="0.5"/>
<path d="M1.186 11.0835C1.11062 11.0835 1.03672 11.0625 0.972594 11.0229C0.908467 10.9833 0.85664 10.9266 0.822918 10.8591C0.789195 10.7917 0.77491 10.7162 0.781661 10.6411C0.788412 10.5661 0.815933 10.4943 0.861141 10.434C2.38039 8.40623 4.08046 6.52046 5.94044 4.79986C6.01954 4.72676 6.12444 4.68809 6.23206 4.69233C6.33967 4.69658 6.4412 4.7434 6.51429 4.8225C6.58739 4.9016 6.62606 5.0065 6.62182 5.11412C6.61757 5.22174 6.57075 5.32326 6.49165 5.39635C4.66786 7.08341 3.00098 8.93252 1.51151 10.9209C1.47363 10.9715 1.42449 11.0125 1.36798 11.0407C1.31148 11.069 1.24917 11.0836 1.186 11.0835Z" fill="#9CA3AF" stroke="#9CA3AF" stroke-width="0.5"/>
<path d="M6.21335 5.64834C6.10575 5.6491 6.00225 5.60713 5.92558 5.53165C5.8489 5.45616 5.80532 5.35333 5.8044 5.24574C5.80348 5.13814 5.8453 5.03458 5.92067 4.9578C5.99605 4.88101 6.09882 4.83728 6.20641 4.83621L23.7446 4.53003C23.8519 4.52959 23.9551 4.57103 24.0322 4.64553C24.1094 4.72003 24.1544 4.82171 24.1577 4.92891C24.1595 5.03661 24.1185 5.14063 24.0437 5.2181C23.9688 5.29556 23.8662 5.34012 23.7585 5.34199L6.22029 5.64817L6.21335 5.64834Z" fill="#9CA3AF" stroke="#9CA3AF" stroke-width="0.5"/>
</g>
<defs>
<clipPath id="clip0">
<rect width="28" height="28" fill="white" transform="translate(0.5 0.330017)"/>
</clipPath>
</defs>
</svg>
