<svg width="29" height="29" viewBox="0 0 29 29" fill="none" xmlns="http://www.w3.org/2000/svg">
<path d="M14.4983 26.8214C14.4507 26.8214 14.4026 26.8132 14.3561 26.7967C14.192 26.7376 14.0814 26.5831 14.0783 26.4086C14.0677 25.7949 14.0713 25.1738 14.0744 24.5732C14.08 23.6123 14.0856 22.6188 14.0327 21.6447C14.0086 21.204 14.0484 20.5205 14.0901 19.797C14.141 18.9192 14.1987 17.9241 14.1307 17.4192C14.0996 17.1894 14.2609 16.978 14.4908 16.9469C14.7192 16.9155 14.9318 17.0771 14.9631 17.307C15.0421 17.8916 14.9844 18.8848 14.929 19.8452C14.8884 20.5446 14.8503 21.2048 14.8718 21.5988C14.9259 22.5978 14.9203 23.6044 14.9147 24.5777C14.9116 25.1173 14.9088 25.6739 14.9158 26.223C14.9665 26.3736 14.9332 26.5391 14.8175 26.6741C14.7363 26.7696 14.6187 26.8214 14.4983 26.8214Z" fill="#22A259" stroke="#22A259" stroke-width="0.5"/>
<path d="M14.5468 17.7832C14.5462 17.7832 14.546 17.7832 14.5454 17.7832C14.3827 17.7827 14.2352 17.6883 14.1663 17.5408L13.8395 16.8408C13.8238 16.8072 13.8126 16.7719 13.8065 16.7355C13.7762 16.5613 13.6917 16.3827 13.6024 16.1931C13.5405 16.0621 13.4766 15.9266 13.4232 15.7793C13.2935 15.4212 13.1896 15.0412 13.1023 14.7133C12.8522 13.7736 12.7464 12.8144 12.6758 11.9998L12.6498 11.71C12.5756 10.8989 12.4919 9.97908 12.654 9.15448C12.747 8.681 12.7898 8.21004 12.8354 7.71164C12.8914 7.10096 12.9491 6.46956 13.107 5.83872C13.2468 5.27984 13.3627 4.70388 13.4747 4.14696C13.6035 3.50716 13.7368 2.84608 13.9084 2.1934C13.9543 2.0184 14.1072 1.89268 14.2875 1.8812C14.4648 1.86944 14.6356 1.975 14.7036 2.143L14.9825 2.83236C15.2222 3.38452 15.3277 3.9826 15.4302 4.5608C15.4534 4.69184 15.4764 4.8226 15.5011 4.9514C15.6083 5.5142 15.7259 6.0728 15.8435 6.63056C16.1073 7.88412 16.3805 9.18052 16.5236 10.4979C16.6325 11.5 16.5449 12.7869 16.2837 14.0293C16.2039 14.4084 16.0457 14.7324 15.8928 15.0457C15.8065 15.2218 15.7253 15.3884 15.6607 15.5589C15.5727 15.7908 15.4941 16.0251 15.4159 16.2592C15.2742 16.6817 15.1281 17.1185 14.9265 17.543C14.8565 17.69 14.7089 17.7832 14.5468 17.7832ZM14.4102 3.76056C14.3721 3.94592 14.3348 4.13016 14.2982 4.31272C14.1842 4.87916 14.0663 5.46492 13.9218 6.04256C13.7799 6.61068 13.7275 7.18272 13.6721 7.78836C13.6264 8.28592 13.5794 8.80056 13.478 9.3166C13.3394 10.023 13.4173 10.879 13.4862 11.6339L13.5125 11.9273C13.5802 12.706 13.681 13.6202 13.914 14.4977C13.9969 14.8082 14.0949 15.1672 14.213 15.4937C14.2531 15.604 14.3057 15.716 14.3617 15.8347C14.4205 15.9593 14.4838 16.0932 14.5367 16.2376C14.5642 16.1567 14.5916 16.075 14.6193 15.9926C14.7011 15.7479 14.7834 15.5032 14.8752 15.261C14.9536 15.0544 15.0472 14.8628 15.1379 14.6775C15.2742 14.3978 15.4033 14.1337 15.4616 13.8565C15.7054 12.6973 15.788 11.5062 15.6886 10.5889C15.55 9.31296 15.2815 8.03756 15.0217 6.80388C14.903 6.24052 14.7842 5.6766 14.6762 5.10848C14.651 4.97604 14.6272 4.84192 14.6034 4.70696C14.5474 4.3914 14.4902 4.06912 14.4102 3.76056Z" fill="#22A259" stroke="#22A259" stroke-width="0.5"/>
<path d="M15.013 19.8368C14.9452 19.8368 14.8794 19.82 14.8212 19.79C14.7921 19.7897 14.7621 19.7861 14.7324 19.7794C14.5065 19.7273 14.3653 19.5019 14.4174 19.2759C14.6078 18.4496 14.8475 17.5774 15.3101 16.7951C15.4761 16.5143 15.6256 16.2161 15.7707 15.9274C16.0722 15.326 16.3839 14.7041 16.8781 14.1536C17.335 13.6448 21.269 10.7331 22.123 10.1499C22.2325 10.0751 22.3412 9.99867 22.4503 9.92223C22.753 9.70971 23.0658 9.49019 23.399 9.29979C23.6124 9.17799 23.8291 9.07579 24.0385 8.97695C24.2883 8.85907 24.524 8.74791 24.7444 8.60987C24.9068 8.50823 25.1179 8.52923 25.2568 8.66195C25.396 8.79439 25.4273 9.00383 25.3335 9.17127C25.284 9.25947 24.115 11.3421 23.4178 12.3283C23.2663 12.5422 23.1414 12.7774 23.009 13.0266C22.8872 13.2551 22.7617 13.4914 22.61 13.7196C22.3353 14.1326 22.0052 14.4764 21.6857 14.8088L21.5787 14.9202C21.3704 15.1384 16.1761 19.5976 15.1006 19.8275C15.0715 19.8337 15.0421 19.8368 15.013 19.8368ZM23.896 9.98439C23.8688 9.99895 23.8425 10.0138 23.8159 10.0292C23.5169 10.2 23.2332 10.3988 22.9334 10.6096C22.8216 10.6883 22.7096 10.7667 22.5971 10.8434C21.6216 11.5096 17.8611 14.3163 17.5036 14.7147C17.085 15.1815 16.8114 15.7266 16.5219 16.304C16.3707 16.6053 16.2142 16.9169 16.0336 17.2227C15.7595 17.6861 15.5727 18.1864 15.4139 18.7568C16.8786 17.835 20.6256 14.7027 20.9725 14.3401L21.08 14.227C21.3875 13.9069 21.6776 13.6048 21.9108 13.2542C22.0396 13.0605 22.1502 12.8524 22.2672 12.6321C22.4061 12.3708 22.55 12.1006 22.732 11.843C23.063 11.3754 23.5177 10.6267 23.896 9.98439Z" fill="#22A259" stroke="#22A259" stroke-width="0.5"/>
<path d="M14.08 19.65C14.0528 19.65 14.0254 19.6475 13.9982 19.6419C13.0582 19.4552 12.1995 18.8725 11.5563 18.3861C10.6228 17.6802 9.92505 17.1275 9.29449 16.5944C8.09889 15.5844 7.15557 14.3272 6.24333 13.1118C5.98433 12.7671 5.72617 12.423 5.46353 12.0856L5.20621 11.758C4.56753 10.9471 3.84317 10.0284 3.43045 9.03915C3.36353 8.87787 3.40273 8.69223 3.52957 8.57211C3.65641 8.45199 3.84457 8.42343 4.00137 8.49959C4.68009 8.82859 5.41565 9.35975 6.25005 10.1236C6.82097 10.6458 7.43473 11.1036 8.18233 11.5642C8.27641 11.6222 8.37133 11.6784 8.46625 11.7347C8.82633 11.9484 9.19845 12.1693 9.53053 12.4778C9.84693 12.7718 10.0947 12.9958 10.4002 13.2002C11.3483 13.8325 12.3286 14.4866 12.9653 15.5976C13.483 16.4998 13.957 17.5638 14.337 18.6742L14.4577 19.0354C14.4879 19.0937 14.5053 19.16 14.5053 19.2303C14.5053 19.4627 14.3093 19.6509 14.0833 19.6503C14.0825 19.65 14.0811 19.65 14.08 19.65ZM5.09673 10.2336C5.34257 10.5741 5.60605 10.9084 5.86589 11.2383L6.12573 11.5692C6.39173 11.9106 6.65325 12.2586 6.91505 12.6075C7.79929 13.7857 8.71377 15.0043 9.83657 15.9529C10.4554 16.476 11.1422 17.0197 12.0631 17.7164C12.4456 18.0056 12.9101 18.3324 13.4071 18.5631C13.0703 17.6436 12.669 16.7688 12.237 16.0154C11.698 15.076 10.8012 14.4776 9.93373 13.8988C9.54817 13.6412 9.23485 13.35 8.95849 13.0933C8.69249 12.846 8.37441 12.6573 8.03757 12.4574C7.93873 12.3989 7.83989 12.3401 7.74161 12.2796C6.94809 11.7904 6.29401 11.3024 5.68277 10.7438C5.48229 10.5596 5.28685 10.3896 5.09673 10.2336Z" fill="#22A259" stroke="#22A259" stroke-width="0.5"/>
<path d="M18.0302 20.763C17.0947 20.763 16.2136 20.5569 15.4693 20.35H15.1532C14.9681 20.35 14.8049 20.2287 14.7511 20.0518C14.6974 19.8748 14.7662 19.6833 14.9202 19.5805C15.0871 19.4694 15.2551 19.3621 15.4234 19.2552C15.788 19.0231 16.1324 18.8038 16.4563 18.5479C17.0692 18.0643 17.6556 17.8179 18.4172 17.5225C19.8989 16.9477 21.4235 16.8735 22.8585 16.8469C23.066 16.843 23.2819 16.8287 23.5008 16.8141C23.7797 16.7957 24.0684 16.7766 24.3588 16.7766C24.8955 16.7766 25.32 16.8438 25.6941 16.9883C25.7324 17.0031 25.768 17.0233 25.7999 17.0479C25.8321 17.0633 25.8932 17.0902 25.9909 17.13C26.1188 17.1266 26.2611 17.1888 26.3437 17.2871C26.3944 17.3473 26.4739 17.4766 26.4406 17.6684C26.419 17.7922 26.3428 17.9 26.2336 17.9619C26.1928 17.9851 26.1485 18.0011 26.1032 18.0092C25.5675 18.4491 24.8602 18.7061 24.2294 18.9354C24.0424 19.0035 23.8598 19.0695 23.6884 19.1384C22.606 19.5735 21.1732 20.1254 19.6886 20.5367C19.1404 20.6891 18.5983 20.763 18.0302 20.763ZM16.2917 19.6953C16.834 19.8233 17.426 19.923 18.0302 19.923C18.521 19.923 18.9903 19.8591 19.4641 19.7278C20.9083 19.3277 22.3128 18.7865 23.3748 18.3595C23.5546 18.2875 23.7458 18.2178 23.9421 18.1464C24.3313 18.005 24.7286 17.8605 25.075 17.6799C24.87 17.6371 24.6354 17.6166 24.3588 17.6166C24.0961 17.6166 23.8217 17.6348 23.5563 17.6522C23.3236 17.6676 23.0946 17.6827 22.8736 17.6866C21.458 17.7129 20.0753 17.7799 18.721 18.3054C18.0061 18.5826 17.4988 18.7954 16.9766 19.2073C16.754 19.3834 16.523 19.5433 16.2917 19.6953Z" fill="#22A259" stroke="#22A259" stroke-width="0.5"/>
<path d="M11.4503 20.7345C10.8197 20.7345 10.1071 20.6222 9.33263 20.401C9.14839 20.3484 8.96163 20.2977 8.77403 20.247C8.01915 20.0426 7.23851 19.8309 6.52283 19.4636C5.90879 19.1483 5.21663 18.8661 4.46595 18.6247C3.87011 18.4329 3.25271 18.1918 2.82543 17.5467C2.73695 17.4131 2.73191 17.2409 2.81283 17.1026C2.89375 16.9643 3.04271 16.8845 3.20595 16.8957C3.89811 16.9464 4.60735 16.9483 5.29335 16.95C6.43799 16.9528 7.62127 16.9559 8.79923 17.181C8.96919 17.2135 9.14195 17.2449 9.31555 17.2762C10.2183 17.44 11.1518 17.6097 12.003 17.9801C12.7747 18.3159 13.3856 18.8045 13.9831 19.5644C13.9957 19.5803 14.0069 19.5969 14.0167 19.6139C14.0613 19.668 14.0929 19.7341 14.1061 19.8074C14.1436 20.0174 14.0179 20.2221 13.8132 20.2837L13.7479 20.3033C13.1165 20.4929 12.5714 20.6564 11.8862 20.7163C11.7454 20.7281 11.5989 20.7345 11.4503 20.7345ZM4.60595 17.7861C4.64403 17.799 4.68295 17.8116 4.72327 17.8247C5.51707 18.0801 6.25179 18.38 6.90643 18.716C7.54343 19.043 8.28067 19.2427 8.99355 19.4359C9.18507 19.4877 9.37519 19.5392 9.56335 19.5929C10.2631 19.7929 10.8978 19.8942 11.4503 19.8942C11.5721 19.8942 11.6927 19.8892 11.8126 19.8788C12.2186 19.8433 12.5823 19.7621 12.9572 19.6585C12.5649 19.2466 12.1601 18.9641 11.6675 18.7499C10.9057 18.4183 10.0209 18.2576 9.16519 18.1022C8.98879 18.0703 8.81407 18.0384 8.64159 18.0053C7.54063 17.7951 6.44807 17.7923 5.29111 17.7895C5.06515 17.7892 4.83639 17.7886 4.60595 17.7861Z" fill="#22A259" stroke="#22A259" stroke-width="0.5"/>
<path d="M8.62482 22.3254C7.65966 22.3254 7.40514 22.105 7.32142 22.0325C7.20494 21.9317 7.15286 21.7755 7.18618 21.6248C7.21894 21.4745 7.33178 21.3544 7.47962 21.3112C7.8201 21.2127 8.15218 21.0486 8.50414 20.8753C8.76482 20.747 9.03418 20.614 9.31362 20.5062C9.92094 20.2719 10.5879 20.0907 11.2179 19.9297C11.793 19.7833 12.3651 19.7626 13.0225 19.8662C13.5383 19.9474 13.8043 20.3648 13.8331 20.4122C13.9373 20.5844 13.9048 20.8064 13.7553 20.9414C13.3347 21.321 12.9533 21.3866 12.7011 21.4297C12.6232 21.4428 12.5499 21.4554 12.5109 21.4725C11.8843 21.7469 11.3881 21.9169 10.9023 22.0227C10.2539 22.1638 9.62694 22.2604 9.03922 22.3094C8.93562 22.3184 8.78862 22.3254 8.62482 22.3254ZM12.2433 20.6426C11.9602 20.6426 11.6925 20.6756 11.4251 20.744C10.82 20.8982 10.1822 21.0713 9.61546 21.29C9.49506 21.3364 9.37578 21.3888 9.2551 21.4451C9.7213 21.3938 10.2231 21.311 10.7229 21.2023C11.1521 21.1088 11.5995 20.9548 12.1735 20.7034C12.2329 20.6773 12.2911 20.6586 12.3488 20.644C12.3133 20.6429 12.2783 20.6426 12.2433 20.6426Z" fill="#22A259" stroke="#22A259" stroke-width="0.5"/>
<path d="M19.754 22.3629C19.136 22.3629 18.5043 22.3204 17.9273 22.2395C17.3359 22.1566 16.7076 22.0124 16.2036 21.8435C16.1876 21.8382 14.6443 21.2365 14.7109 20.4057C14.7199 20.2921 14.775 20.1871 14.8632 20.1145C14.9514 20.0423 15.0662 20.0093 15.1782 20.0221C15.2899 20.035 17.9172 20.343 18.3375 20.4197C18.4581 20.4419 18.5819 20.4623 18.7076 20.4833C19.6187 20.6351 20.6511 20.8073 21.3091 21.6151C21.4065 21.7346 21.4306 21.8976 21.3721 22.0401C21.3133 22.1823 21.1814 22.2815 21.0283 22.2977C20.6279 22.3411 20.1992 22.3629 19.754 22.3629ZM16.3786 21.0114C16.4111 21.0257 16.4421 21.0377 16.4699 21.0469C16.9204 21.1979 17.5089 21.3325 18.0435 21.4076C18.5326 21.4759 19.0649 21.5151 19.5924 21.5218C19.2676 21.4286 18.9159 21.3698 18.5693 21.3121C18.4391 21.2903 18.3109 21.269 18.1863 21.2463C17.9877 21.2099 17.164 21.1069 16.3786 21.0114Z" fill="#22A259" stroke="#22A259" stroke-width="0.5"/>
</svg>
