<svg width="46" height="45" viewBox="0 0 46 45" fill="none" xmlns="http://www.w3.org/2000/svg">
<path d="M40.3347 28.331C40.5585 28.141 40.6875 27.8622 40.6875 27.5686C40.6875 27.275 40.5584 26.9962 40.3346 26.8062L39.4562 26.0608C39.4562 26.0608 39.4562 26.0608 39.4562 26.0608C39.3199 25.9451 37.46 24.3884 34.7213 23.4376C37.6699 19.5198 38.0762 14.8434 38.0956 14.6055L38.1895 13.4574C38.2134 13.1648 38.1075 12.8764 37.8999 12.6688C37.6923 12.4612 37.404 12.3553 37.1113 12.3792L35.9633 12.4731C35.9633 12.4731 35.9632 12.4731 35.9632 12.4731C35.7395 12.4914 32.1651 12.8063 28.6633 14.8346C27.8162 9.73302 24.6743 5.98966 24.5078 5.79356L24.5077 5.79344L23.7623 4.91532C23.5723 4.6915 23.2935 4.56249 22.9999 4.5625C22.7063 4.56251 22.4275 4.69154 22.2376 4.91537L21.4922 5.79353C21.3255 5.98982 18.1838 9.73316 17.3366 14.8347C13.8346 12.8062 10.26 12.4914 10.0367 12.4732C10.0367 12.4732 10.0367 12.4732 10.0367 12.4732L8.88859 12.3793C8.59596 12.3554 8.30761 12.4613 8.1 12.6689C7.89239 12.8765 7.7865 13.1648 7.81043 13.4575L7.9043 14.6056L8.90013 14.5241L7.9043 14.6056C7.92375 14.8435 8.33006 19.5198 11.2787 23.4377C8.5397 24.3886 6.67971 25.9455 6.5437 26.0609L5.66544 26.8062C5.44157 26.9962 5.31251 27.275 5.3125 27.5686C5.31249 27.8623 5.44152 28.1411 5.66538 28.3311L6.54369 29.0766L6.54376 29.0767C6.61353 29.1359 6.70198 29.1917 6.73347 29.2116L6.73842 29.2147C6.79427 29.2501 6.86581 29.2938 6.95072 29.3441C7.12119 29.4451 7.35553 29.5785 7.64342 29.7331C8.21894 30.0421 9.01697 30.4401 9.95536 30.8348C11.3888 31.4376 13.2014 32.0546 15.0728 32.3091C14.8029 32.7317 14.5294 33.1297 14.2812 33.4792C14.0686 33.7785 13.8786 34.0365 13.726 34.2438C13.6996 34.2796 13.6744 34.3139 13.6504 34.3466C13.5712 34.4542 13.4987 34.5535 13.4451 34.6307C13.4193 34.6678 13.3877 34.7143 13.3593 34.761C13.3458 34.7833 13.3231 34.8219 13.3004 34.869C13.3002 34.8693 13.2999 34.8699 13.2995 34.8707C13.2899 34.8899 13.2151 35.0391 13.1988 35.2373C13.1988 35.2374 13.1988 35.2376 13.1988 35.2377L13.1049 36.3854C13.0809 36.6781 13.1868 36.9665 13.3944 37.1741C13.602 37.3817 13.8903 37.4876 14.183 37.4637L15.3312 37.3698L15.3316 37.3698C15.4868 37.3571 18.4894 37.1006 21.0222 35.1932V38.9375C21.0222 39.4898 21.4699 39.9375 22.0222 39.9375H23.9778C24.5301 39.9375 24.9778 39.4898 24.9778 38.9375V35.1931C27.5106 37.1006 30.5132 37.3571 30.669 37.3699L31.8171 37.4637C32.1098 37.4876 32.3982 37.3817 32.6058 37.1741C32.8134 36.9665 32.9192 36.6781 32.8953 36.3854L32.8013 35.2373L32.8013 35.2371C32.785 35.0388 32.7101 34.8895 32.7005 34.8704C32.7001 34.8696 32.6998 34.869 32.6996 34.8687C32.6769 34.8216 32.6542 34.7831 32.6407 34.7609C32.6123 34.7141 32.5808 34.6677 32.555 34.6306C32.5014 34.5535 32.4288 34.4542 32.3497 34.3466C32.3258 34.314 32.3007 34.28 32.2745 34.2444C32.1218 34.037 31.9317 33.7788 31.7189 33.4792C31.4706 33.1297 31.1971 32.7317 30.9272 32.3091C32.7986 32.0546 34.6112 31.4376 36.0447 30.8348C36.9831 30.4401 37.7811 30.0421 38.3567 29.7331C38.6446 29.5785 38.8789 29.4451 39.0494 29.3441C39.1343 29.2938 39.2058 29.2501 39.2617 29.2147L39.2667 29.2116C39.2981 29.1917 39.3866 29.1359 39.4564 29.0767L39.4565 29.0765L40.3347 28.331Z" stroke="url(#paint0_linear)" stroke-width="2" stroke-linejoin="round"/>
<defs>
<linearGradient id="paint0_linear" x1="23" y1="5.5625" x2="23" y2="38.9375" gradientUnits="userSpaceOnUse">
<stop stop-color="#2ECC71"/>
<stop offset="1" stop-color="#187E43"/>
</linearGradient>
</defs>
</svg>
