<svg width="24" height="24" viewBox="0 0 24 24" fill="none" xmlns="http://www.w3.org/2000/svg">
<path fill-rule="evenodd" clip-rule="evenodd" d="M12 7.04002C11.52 7.04002 11.2 6.72002 11.2 6.24002V5.65011C8.3161 6.01384 6.0138 8.31617 5.6501 11.2001H6.23999C6.71999 11.2001 7.03999 11.5201 7.03999 12.0001C7.03999 12.4801 6.63999 12.8001 6.23999 12.8001H5.65012C6.01387 15.6839 8.31615 17.9862 11.2 18.3499V17.7601C11.2 17.2801 11.52 16.9601 12 16.9601C12.48 16.9601 12.8 17.2801 12.8 17.7601V18.3499C15.6838 17.9862 17.9861 15.6839 18.3499 12.8001H17.76C17.28 12.8001 16.96 12.4801 16.96 12.0001C16.96 11.5201 17.28 11.2001 17.76 11.2001H18.3499C17.9862 8.31616 15.6839 6.01384 12.8 5.65011V6.24002C12.8 6.64002 12.48 7.04002 12 7.04002ZM4.03237 12.8001C4.37561 16.6021 7.40852 19.6591 11.2 20.04V20.8001C11.2 21.2801 11.52 21.6001 12 21.6001C12.48 21.6001 12.8 21.2801 12.8 20.8001V20.04C16.5694 19.6611 19.589 16.6333 19.9614 12.8001H20.8C21.28 12.8001 21.6 12.4801 21.6 12.0001C21.6 11.5201 21.28 11.2001 20.8 11.2001H19.96C19.5818 7.43517 16.5649 4.41821 12.8 4.03999V3.20002C12.8 2.72002 12.48 2.40002 12 2.40002C11.52 2.40002 11.2 2.72002 11.2 3.20002V4.04001C7.45683 4.41631 4.45301 7.40472 4.04679 11.2001H3.19999C2.71999 11.2001 2.39999 11.5201 2.39999 12.0001C2.39999 12.4801 2.71999 12.8001 3.19999 12.8001H4.03237ZM11.9988 16.08C14.2077 16.08 15.9984 14.2893 15.9984 12.0804C15.9984 9.87149 14.2077 8.08081 11.9988 8.08081C9.78989 8.08081 7.99921 9.87149 7.99921 12.0804C7.99921 14.2893 9.78989 16.08 11.9988 16.08Z" fill="#32824F"/>
</svg>
