<svg width="46" height="45" viewBox="0 0 46 45" fill="none" xmlns="http://www.w3.org/2000/svg">
<path d="M28.5625 9.27051V12.9788" stroke="#22A259" stroke-width="2.02273" stroke-linecap="round" stroke-linejoin="round"/>
<path d="M28.5625 20.3955V24.1038" stroke="#22A259" stroke-width="2.02273" stroke-linecap="round" stroke-linejoin="round"/>
<path d="M28.5625 31.5205V35.2288" stroke="#22A259" stroke-width="2.02273" stroke-linecap="round" stroke-linejoin="round"/>
<path d="M10.0208 9.27051H35.9792C36.9627 9.27051 37.9059 9.66121 38.6014 10.3567C39.2968 11.0521 39.6875 11.9953 39.6875 12.9788V18.5413C38.704 18.5413 37.7608 18.932 37.0653 19.6275C36.3699 20.3229 35.9792 21.2662 35.9792 22.2497C35.9792 23.2332 36.3699 24.1764 37.0653 24.8719C37.7608 25.5673 38.704 25.958 39.6875 25.958V31.5205C39.6875 32.504 39.2968 33.4472 38.6014 34.1427C37.9059 34.8381 36.9627 35.2288 35.9792 35.2288H10.0208C9.03732 35.2288 8.09409 34.8381 7.39865 34.1427C6.7032 33.4472 6.3125 32.504 6.3125 31.5205V25.958C7.29601 25.958 8.23924 25.5673 8.93469 24.8719C9.63014 24.1764 10.0208 23.2332 10.0208 22.2497C10.0208 21.2662 9.63014 20.3229 8.93469 19.6275C8.23924 18.932 7.29601 18.5413 6.3125 18.5413V12.9788C6.3125 11.9953 6.7032 11.0521 7.39865 10.3567C8.09409 9.66121 9.03732 9.27051 10.0208 9.27051" stroke="#22A259" stroke-width="2.02273" stroke-linecap="round" stroke-linejoin="round"/>
</svg>
