<svg width="33" height="32" viewBox="0 0 33 32" fill="none" xmlns="http://www.w3.org/2000/svg">
<path d="M20.125 6.6665V9.33317" stroke="#666666" stroke-width="2.25" stroke-linecap="round" stroke-linejoin="round"/>
<path d="M20.125 14.6665V17.3332" stroke="#666666" stroke-width="2.25" stroke-linecap="round" stroke-linejoin="round"/>
<path d="M20.125 22.6665V25.3332" stroke="#666666" stroke-width="2.25" stroke-linecap="round" stroke-linejoin="round"/>
<path d="M6.79167 6.6665H25.4583C26.1656 6.6665 26.8439 6.94746 27.344 7.44755C27.844 7.94765 28.125 8.62593 28.125 9.33317V13.3332C27.4178 13.3332 26.7395 13.6141 26.2394 14.1142C25.7393 14.6143 25.4583 15.2926 25.4583 15.9998C25.4583 16.7071 25.7393 17.3854 26.2394 17.8855C26.7395 18.3856 27.4178 18.6665 28.125 18.6665V22.6665C28.125 23.3737 27.844 24.052 27.344 24.5521C26.8439 25.0522 26.1656 25.3332 25.4583 25.3332H6.79167C6.08442 25.3332 5.40615 25.0522 4.90605 24.5521C4.40595 24.052 4.125 23.3737 4.125 22.6665V18.6665C4.83224 18.6665 5.51052 18.3856 6.01062 17.8855C6.51072 17.3854 6.79167 16.7071 6.79167 15.9998C6.79167 15.2926 6.51072 14.6143 6.01062 14.1142C5.51052 13.6141 4.83224 13.3332 4.125 13.3332V9.33317C4.125 8.62593 4.40595 7.94765 4.90605 7.44755C5.40615 6.94746 6.08442 6.6665 6.79167 6.6665" stroke="#666666" stroke-width="2.25" stroke-linecap="round" stroke-linejoin="round"/>
</svg>
