<svg width="21" height="20" viewBox="0 0 21 20" fill="none" xmlns="http://www.w3.org/2000/svg">
<path fill-rule="evenodd" clip-rule="evenodd" d="M6.78 18C4.4566 18 2.29399 17.3313 0.473267 16.1853C0.795132 16.2226 1.12264 16.2417 1.45471 16.2417C3.38223 16.2417 5.15623 15.5959 6.56428 14.5126C4.76394 14.48 3.24455 13.3122 2.72104 11.7075C2.97219 11.7546 3.22995 11.7799 3.49504 11.7799C3.87031 11.7799 4.23376 11.7306 4.57903 11.6383C2.69683 11.2672 1.27874 9.63467 1.27874 7.67761C1.27874 7.66061 1.27874 7.64369 1.27903 7.62684C1.83378 7.92937 2.46813 8.11106 3.14259 8.13202C2.03865 7.4077 1.31226 6.17136 1.31226 4.77003C1.31226 4.0298 1.51515 3.33594 1.86929 2.73937C3.89847 5.18311 6.93 6.79119 10.3493 6.95963C10.2792 6.66401 10.2428 6.35571 10.2428 6.03914C10.2428 3.8085 12.0849 2 14.3571 2C15.5404 2 16.6096 2.49056 17.3602 3.27559C18.2973 3.0944 19.1778 2.75824 19.9727 2.2954C19.6655 3.23857 19.0132 4.03016 18.1637 4.53008C18.996 4.43243 19.7889 4.2153 20.5267 3.89405C19.9751 4.70407 19.2776 5.4155 18.4738 5.98499C18.4817 6.15818 18.4857 6.33238 18.4857 6.50752C18.4857 11.8452 14.3475 18 6.78 18Z" fill="white"/>
</svg>
