<svg width="32" height="27" viewBox="0 0 32 27" fill="none" xmlns="http://www.w3.org/2000/svg">
<path fill-rule="evenodd" clip-rule="evenodd" d="M17.9895 22.5599C17.762 23.3213 17.5028 23.9635 17.2336 24.5091C17.2328 24.5108 17.2328 24.5116 17.2328 24.5133C17.0486 24.8881 16.8594 25.2171 16.6744 25.5078C16.6369 25.567 16.5994 25.6236 16.5619 25.6794C16.5552 25.6894 16.5268 25.7311 16.4902 25.7836C16.4202 25.8843 16.2618 25.8402 16.256 25.7177C16.2539 25.6757 16.2524 25.6328 16.2509 25.5897C16.2475 25.4938 16.2441 25.3963 16.2343 25.3021C16.2326 25.2913 16.2318 25.2805 16.231 25.2696L16.231 25.2696C16.201 24.9831 16.1643 24.6874 16.1218 24.3842C15.9901 23.4404 15.7984 22.4242 15.5551 21.378C15.2834 20.2085 14.9483 19.0031 14.5599 17.8253C13.2373 13.8137 11.4354 10.4318 9.44931 8.21446C9.37763 8.13366 9.37263 8.01455 9.43931 7.92958C10.8078 6.1895 13.2023 2.71683 14.4041 0.580251C14.4583 0.483626 14.5933 0.471965 14.6633 0.557761C16.2468 2.50525 17.3461 4.84091 18.0145 7.66886C18.6688 10.4377 18.9071 13.7054 18.7421 17.6587C18.6854 19.0181 18.5371 20.1843 18.3312 21.1889C18.2296 21.6837 18.1145 22.1401 17.9895 22.5599ZM18.4269 24.3058C18.4002 24.3699 18.4761 24.4274 18.5311 24.3849C18.5994 24.3324 18.6669 24.2799 18.7344 24.2275C19.2587 23.8201 19.7596 23.4211 20.2363 23.033C24.7252 19.3762 27.0855 16.6291 27.3597 15.9169C27.4447 15.6412 27.1405 14.2643 26.1937 12.0769C25.7561 11.0665 25.3161 10.1968 24.9435 9.55379C24.9069 9.49048 24.811 9.51047 24.801 9.58377C24.241 13.8128 21.6056 18.1601 19.272 21.5844C19.1003 22.3849 18.8928 23.088 18.6661 23.706C18.6111 23.856 18.5052 24.115 18.4269 24.3058ZM14.6021 21.6995C14.6054 21.7053 14.6071 21.7111 14.6087 21.7178C14.8729 22.8698 15.0721 23.9793 15.1955 24.983L15.213 25.1346C15.223 25.2229 15.1096 25.2663 15.058 25.1946C14.7696 24.794 14.4462 24.3958 14.0895 24.0035C12.8635 22.6532 11.2517 21.3696 9.3681 20.2684C6.74361 18.7341 3.93743 17.747 1.40878 17.443C1.32044 17.433 1.29377 17.3188 1.36878 17.2714C2.29556 16.6883 5.78849 14.5151 6.40607 14.5151C6.9678 14.5151 8.72218 15.2764 10.7033 16.9099C11.7834 17.8003 13.5678 19.4987 14.6021 21.6995ZM10.0048 22.9422C7.70623 22.0384 5.20008 21.5461 4.29831 21.6536C3.6849 21.7269 1.92301 22.8864 0.286978 24.0009C0.216135 24.0492 0.254474 24.1592 0.339484 24.155C0.554492 24.1431 0.768539 24.1309 0.981227 24.1188L1.37044 24.0967C2.68144 24.0201 3.97243 23.9451 5.25092 23.9451C8.36547 23.9451 11.4008 24.3932 14.4479 26.3607C14.5237 26.4099 14.6137 26.3216 14.5654 26.2458C14.2504 25.7518 13.8728 25.2595 13.4411 24.7739C13.4369 24.7689 13.4319 24.7647 13.4269 24.7614C12.5335 24.0992 11.38 23.4828 10.0048 22.9422ZM27.7763 22.4724C26.9478 22.2458 23.6583 22.8072 20.7521 23.8984C20.0837 24.4424 18.8127 25.4178 17.9292 26.0925C17.8584 26.1466 17.9292 26.2549 18.0084 26.2133C21.6297 24.2958 25.3985 24.5715 29.3573 24.8614C30.1182 24.9172 30.895 24.9738 31.6776 25.0146C31.7451 25.018 31.7768 24.9305 31.7226 24.8905C30.0182 23.6252 28.3772 22.6365 27.7763 22.4724Z" fill="url(#paint0_linear)"/>
<defs>
<linearGradient id="paint0_linear" x1="16" y1="0.5" x2="16" y2="26.375" gradientUnits="userSpaceOnUse">
<stop stop-color="#2ECC71"/>
<stop offset="1" stop-color="#187E43"/>
</linearGradient>
</defs>
</svg>
