<svg width="166" height="38" viewBox="0 0 166 38" fill="none" xmlns="http://www.w3.org/2000/svg">
<path fill-rule="evenodd" clip-rule="evenodd" d="M21.3106 28.0147C21.084 28.7735 20.8258 29.4135 20.5576 29.9573C20.5568 29.9589 20.5568 29.9597 20.5568 29.9614C20.3734 30.335 20.1849 30.6629 20.0006 30.9526C19.9633 31.0115 19.9259 31.068 19.8886 31.1236C19.8819 31.1336 19.8537 31.1751 19.8172 31.2274C19.7474 31.3278 19.5897 31.2838 19.5839 31.1618C19.5818 31.1198 19.5803 31.0772 19.5788 31.0342C19.5755 30.9386 19.572 30.8415 19.5623 30.7476C19.5606 30.7368 19.5598 30.726 19.559 30.7152C19.5291 30.4296 19.4926 30.1349 19.4502 29.8327C19.3191 28.8922 19.1281 27.8794 18.8857 26.8368C18.6151 25.6712 18.2814 24.47 17.8945 23.2962C16.5771 19.2982 14.7823 15.9279 12.8041 13.718C12.7327 13.6375 12.7277 13.5188 12.7942 13.4341C14.1572 11.6999 16.5422 8.23908 17.7393 6.10976C17.7933 6.01347 17.9278 6.00185 17.9975 6.08735C19.5748 8.02822 20.6697 10.3559 21.3355 13.1743C21.9872 15.9337 22.2246 19.1903 22.0602 23.1302C22.0038 24.485 21.856 25.6472 21.6509 26.6483C21.5497 27.1414 21.4351 27.5963 21.3106 28.0147ZM21.7464 29.7547C21.7199 29.8186 21.7954 29.8759 21.8502 29.8335C21.9183 29.7812 21.9855 29.7289 22.0528 29.6766C22.5749 29.2707 23.0738 28.8731 23.5487 28.4862C28.0198 24.8419 30.3708 22.1041 30.6439 21.3943C30.7286 21.1195 30.4256 19.7473 29.4825 17.5674C29.0467 16.5604 28.6084 15.6937 28.2373 15.0529C28.2008 14.9898 28.1053 15.0097 28.0954 15.0827C27.5375 19.2974 24.9126 23.6299 22.5882 27.0426C22.4172 27.8404 22.2105 28.541 21.9847 29.157C21.9299 29.3064 21.8245 29.5646 21.7464 29.7547ZM17.9367 27.1572C17.9401 27.163 17.9417 27.1688 17.9434 27.1754C18.2065 28.3235 18.4049 29.4293 18.5278 30.4296L18.5452 30.5807C18.5552 30.6687 18.4423 30.7118 18.3908 30.6405C18.1036 30.2412 17.7815 29.8443 17.4262 29.4534C16.2051 28.1077 14.5996 26.8284 12.7235 25.731C10.1093 24.2019 7.31425 23.2182 4.7956 22.9151C4.7076 22.9052 4.68104 22.7915 4.75575 22.7441C5.67887 22.163 9.15799 19.9972 9.77313 19.9972C10.3326 19.9972 12.0801 20.7559 14.0533 22.3839C15.1292 23.2713 16.9065 24.9639 17.9367 27.1572ZM13.3579 28.3957C11.0684 27.495 8.57212 27.0044 7.67391 27.1115C7.06292 27.1845 5.308 28.3401 3.67843 29.4508C3.60787 29.499 3.64606 29.6086 3.73073 29.6044C3.9435 29.5926 4.15531 29.5806 4.3658 29.5686L4.36609 29.5685L4.36847 29.5684L4.37009 29.5683L4.75762 29.5463C6.06343 29.4699 7.34932 29.3952 8.62276 29.3952C11.725 29.3952 14.7484 29.8418 17.7834 31.8026C17.8589 31.8516 17.9486 31.7636 17.9004 31.6881C17.5866 31.1958 17.2106 30.7052 16.7806 30.2212C16.7764 30.2162 16.7714 30.2121 16.7665 30.2087C15.8765 29.5488 14.7276 28.9345 13.3579 28.3957ZM31.0589 27.9276C30.2338 27.7018 26.9572 28.2613 24.0625 29.3488C23.3967 29.8908 22.1308 30.8629 21.2508 31.5354C21.1803 31.5893 21.2508 31.6972 21.3297 31.6557C24.9366 29.7447 28.6905 30.0195 32.6337 30.3084C33.3916 30.364 34.1653 30.4205 34.9448 30.4612C35.0121 30.4645 35.0436 30.3773 34.9897 30.3375C33.292 29.0765 31.6575 28.0911 31.0589 27.9276Z" fill="url(#paint0_linear)"/>
<path d="M51.5418 9.16761C48.607 9.16761 46.8974 10.9342 46.8974 13.9545V24.896C46.8974 27.9163 48.607 29.6829 51.5418 29.6829C54.5051 29.6829 56.2432 27.9163 56.2432 24.896V22.5025L53.3369 22.3601V24.5826C53.3369 26.1782 52.7385 26.8905 51.6273 26.8905C50.516 26.8905 49.9177 26.1782 49.9177 24.8675V13.983C49.9177 12.6723 50.516 11.96 51.6273 11.96C52.7385 11.96 53.3369 12.6723 53.3369 14.2679V15.8921L56.2432 15.7496V13.9545C56.2432 10.9342 54.5051 9.16761 51.5418 9.16761ZM68.4177 29.3979L64.97 9.45255H61.1234L57.6757 29.3979H60.696L61.3513 24.8675H64.6851L65.3404 29.3979H68.4177ZM62.9755 13.7266H63.0609L64.2862 22.1321H61.7502L62.9755 13.7266ZM80.4145 29.3979V9.45255H77.5652V21.3343H77.5082L73.9465 9.45255H70.5843V29.3979H73.4337V16.177H73.4906L77.4512 29.3979H80.4145ZM93.4926 29.3979V9.45255H90.6432V21.3343H90.5863L87.0246 9.45255H83.6624V29.3979H86.5117V16.177H86.5687L90.5293 29.3979H93.4926ZM106.4 29.3979L102.952 9.45255H99.1053L95.6576 29.3979H98.6779L99.3333 24.8675H102.667L103.322 29.3979H106.4ZM100.957 13.7266H101.043L102.268 22.1321H99.7322L100.957 13.7266ZM108.566 9.45255V29.3979H111.587V21.1349H112.926C116.174 21.1349 117.941 19.3683 117.941 16.0915V14.4959C117.941 11.2191 116.174 9.45255 112.926 9.45255H108.566ZM111.587 12.2449H112.812C114.265 12.2449 114.92 13.0142 114.92 14.6953V15.8921C114.92 17.5732 114.265 18.3425 112.812 18.3425H111.587V12.2449ZM128.911 29.3979L125.463 9.45255H121.616L118.169 29.3979H121.189L121.844 24.8675H125.178L125.833 29.3979H128.911ZM123.468 13.7266H123.554L124.779 22.1321H122.243L123.468 13.7266ZM135.326 9.16761C132.334 9.16761 130.625 10.9342 130.625 13.9545V24.896C130.625 27.9163 132.334 29.6829 135.326 29.6829C138.346 29.6829 140.084 27.9163 140.084 24.896V18.371H135.412V21.1633H137.121V24.5826C137.121 26.1782 136.551 26.8905 135.383 26.8905C134.215 26.8905 133.645 26.1782 133.645 24.8675V13.983C133.645 12.6723 134.243 11.96 135.412 11.96C136.58 11.96 137.178 12.6723 137.178 14.2679V15.4647L140.084 15.3222V13.9545C140.084 10.9342 138.346 9.16761 135.326 9.16761ZM151.422 12.2449V9.45255H142.931V29.3979H151.422V26.6056H145.951V20.679H150.368V17.8866H145.951V12.2449H151.422ZM157.54 9.16761C154.748 9.16761 153.038 10.7063 153.038 13.6411V14.1255C153.038 16.291 153.95 17.9151 156.628 20.394C158.594 22.1891 159.164 23.1009 159.164 24.3546V24.9815C159.164 26.4061 158.423 26.8905 157.512 26.8905C156.429 26.8905 155.802 26.2352 155.802 24.896V23.5283L152.896 23.8132V25.1239C152.896 28.0588 154.776 29.6829 157.569 29.6829C160.332 29.6829 162.184 28.1442 162.184 25.2094V24.2406C162.184 21.9327 161.273 20.3085 158.594 17.8296C156.628 16.0345 156.058 15.1227 156.058 14.0115V13.5841C156.058 12.4444 156.685 11.96 157.569 11.96C158.623 11.96 159.136 12.5868 159.136 13.9545V14.5814L162.042 14.2964V13.7266C162.042 10.7917 160.332 9.16761 157.54 9.16761Z" fill="url(#paint1_linear)"/>
<rect x="1.48291" y="1.23291" width="35.5342" height="35.5342" rx="4.30717" stroke="url(#paint2_linear)" stroke-width="1.5"/>
<defs>
<linearGradient id="paint0_linear" x1="19.3294" y1="6.02979" x2="19.3294" y2="31.8168" gradientUnits="userSpaceOnUse">
<stop stop-color="#1BB75D"/>
<stop offset="1" stop-color="#128D46"/>
</linearGradient>
<linearGradient id="paint1_linear" x1="105.552" y1="2.39795" x2="105.552" y2="35.5613" gradientUnits="userSpaceOnUse">
<stop stop-color="#2ECC71"/>
<stop offset="1" stop-color="#187E43"/>
</linearGradient>
<linearGradient id="paint2_linear" x1="19.25" y1="1.23291" x2="19.25" y2="36.7671" gradientUnits="userSpaceOnUse">
<stop stop-color="#20C064"/>
<stop offset="1" stop-color="#108B3E"/>
</linearGradient>
</defs>
</svg>
